<?xml version="1.0" encoding="UTF-8"?>
<svg xmlns="http://www.w3.org/2000/svg" xmlns:xlink="http://www.w3.org/1999/xlink" width="36pt" height="36.000001pt" viewBox="0 0 36 36.000001" version="1.2">
<defs>
<clipPath id="clip1">
  <path d="M 0.488281 0 L 35.511719 0 L 35.511719 35.027344 L 0.488281 35.027344 Z M 0.488281 0 "/>
</clipPath>
</defs>
<g id="surface1">
<g clip-path="url(#clip1)" clip-rule="nonzero">
<path style=" stroke:none;fill-rule:nonzero;fill:rgb(100%,34.118652%,34.118652%);fill-opacity:1;" d="M 35.515625 17.515625 C 35.515625 27.1875 27.675781 35.03125 18.003906 35.03125 C 8.332031 35.03125 0.488281 27.1875 0.488281 17.515625 C 0.488281 7.84375 8.332031 0.00390625 18.003906 0.00390625 C 27.675781 0.00390625 35.515625 7.84375 35.515625 17.515625 "/>
</g>
<path style=" stroke:none;fill-rule:nonzero;fill:rgb(100%,100%,100%);fill-opacity:1;" d="M 13.867188 19.730469 C 15.269531 19.730469 16.515625 20.144531 17.5625 20.964844 C 18.964844 22.058594 19.960938 23.855469 20.535156 26.300781 C 20.5625 26.421875 20.671875 26.488281 20.769531 26.488281 C 20.808594 26.488281 20.847656 26.476562 20.882812 26.453125 C 21.488281 26.097656 21.617188 25.035156 21.246094 23.464844 C 21.195312 23.304688 20.796875 21.90625 21.453125 20.988281 C 21.796875 20.503906 22.355469 20.25 23.109375 20.230469 L 23.152344 20.230469 L 23.191406 20.238281 C 23.195312 20.238281 23.660156 20.34375 24.195312 20.34375 C 24.761719 20.34375 25.46875 20.226562 25.621094 19.679688 C 25.640625 19.605469 25.800781 18.902344 25.125 18.511719 L 24.558594 18.183594 L 25.160156 17.925781 C 25.210938 17.902344 25.679688 17.65625 25.585938 16.828125 L 25.585938 16.796875 C 25.585938 16.789062 25.5625 15.890625 25.003906 15.765625 L 24.183594 15.585938 L 24.886719 15.171875 C 24.929688 15.136719 25.25 14.839844 25.117188 14.019531 C 25.09375 13.84375 24.953125 13.332031 24.65625 13.230469 L 24.058594 13.03125 L 24.535156 12.675781 C 24.566406 12.636719 24.742188 12.375 24.65625 11.742188 C 24.648438 11.660156 24.535156 10.988281 23.761719 10.988281 C 23.730469 10.988281 23.699219 10.988281 23.664062 10.992188 L 23.648438 10.992188 L 18.417969 11.117188 C 18.371094 11.128906 18.324219 11.128906 18.277344 11.128906 C 18.238281 11.128906 18.195312 11.128906 18.140625 11.125 C 18.078125 11.125 18.003906 11.121094 17.921875 11.121094 C 17.191406 11.121094 16.578125 11.355469 16.039062 11.835938 C 15.925781 11.953125 15.039062 12.800781 13.511719 12.800781 C 13.355469 12.800781 13.195312 12.789062 13.035156 12.773438 C 13.003906 12.769531 12.972656 12.769531 12.945312 12.769531 C 12.523438 12.769531 12.171875 13.113281 12.164062 13.539062 L 12.019531 19.242188 C 12.015625 19.398438 12.074219 19.546875 12.179688 19.65625 C 12.3125 19.792969 12.507812 19.855469 12.695312 19.824219 C 13.085938 19.761719 13.480469 19.730469 13.867188 19.730469 Z M 20.769531 27.144531 C 20.347656 27.144531 19.988281 26.859375 19.890625 26.449219 C 18.722656 21.441406 15.96875 20.386719 13.867188 20.386719 C 13.515625 20.386719 13.160156 20.417969 12.804688 20.476562 C 12.40625 20.542969 11.988281 20.40625 11.710938 20.117188 C 11.476562 19.878906 11.351562 19.5625 11.359375 19.226562 L 11.503906 13.519531 C 11.523438 12.742188 12.167969 12.109375 12.945312 12.109375 C 13 12.109375 13.054688 12.113281 13.109375 12.117188 C 13.242188 12.132812 13.378906 12.140625 13.511719 12.140625 C 14.820312 12.140625 15.542969 11.402344 15.570312 11.371094 L 15.589844 11.355469 C 16.257812 10.753906 17.019531 10.460938 17.921875 10.460938 C 18.011719 10.460938 18.09375 10.464844 18.164062 10.46875 C 18.210938 10.46875 18.25 10.46875 18.28125 10.46875 L 18.300781 10.460938 L 23.625 10.335938 C 23.671875 10.332031 23.71875 10.332031 23.761719 10.332031 C 24.867188 10.332031 25.257812 11.199219 25.3125 11.660156 C 25.382812 12.191406 25.308594 12.5625 25.210938 12.800781 C 25.648438 13.171875 25.757812 13.832031 25.769531 13.917969 C 25.875 14.585938 25.746094 15.035156 25.589844 15.320312 C 26.1875 15.746094 26.238281 16.625 26.242188 16.769531 C 26.324219 17.507812 26.074219 17.964844 25.828125 18.226562 C 26.363281 18.761719 26.355469 19.492188 26.253906 19.855469 C 26.109375 20.378906 25.632812 21 24.195312 21.003906 C 23.679688 21.003906 23.226562 20.917969 23.089844 20.890625 C 22.566406 20.910156 22.203125 21.066406 21.988281 21.371094 C 21.582031 21.941406 21.769531 22.941406 21.878906 23.277344 L 21.882812 23.300781 C 22.460938 25.714844 21.839844 26.65625 21.21875 27.023438 C 21.082031 27.101562 20.925781 27.144531 20.769531 27.144531 "/>
<path style=" stroke:none;fill-rule:nonzero;fill:rgb(100%,100%,100%);fill-opacity:1;" d="M 8.46875 12.746094 C 8.167969 12.746094 7.925781 12.984375 7.914062 13.285156 L 7.71875 18.6875 C 7.707031 19.09375 8.023438 19.433594 8.425781 19.449219 L 9.691406 19.492188 C 10.003906 19.492188 10.261719 19.246094 10.273438 18.929688 L 10.46875 13.46875 C 10.480469 13.113281 10.199219 12.808594 9.839844 12.796875 Z M 9.691406 20.152344 C 9.675781 20.152344 9.660156 20.152344 9.644531 20.152344 L 8.402344 20.105469 C 7.636719 20.078125 7.035156 19.433594 7.0625 18.664062 L 7.253906 13.261719 C 7.277344 12.589844 7.835938 12.0625 8.511719 12.089844 L 9.863281 12.136719 C 10.585938 12.164062 11.152344 12.773438 11.128906 13.492188 L 10.929688 18.953125 C 10.90625 19.625 10.363281 20.152344 9.691406 20.152344 "/>
</g>
</svg>
