<?xml version="1.0" encoding="UTF-8"?>
<svg xmlns="http://www.w3.org/2000/svg" xmlns:xlink="http://www.w3.org/1999/xlink" width="36pt" height="36.000001pt" viewBox="0 0 36 36.000001" version="1.2">
<defs>
<clipPath id="clip1">
  <path d="M 0.488281 0 L 35.511719 0 L 35.511719 35.027344 L 0.488281 35.027344 Z M 0.488281 0 "/>
</clipPath>
</defs>
<g id="surface1">
<g clip-path="url(#clip1)" clip-rule="nonzero">
<path style=" stroke:none;fill-rule:nonzero;fill:rgb(30.589294%,74.508667%,29.019165%);fill-opacity:1;" d="M 17.996094 35.023438 C 8.339844 35.023438 0.484375 27.167969 0.484375 17.511719 C 0.484375 7.855469 8.339844 0 17.996094 0 C 27.652344 0 35.507812 7.855469 35.507812 17.511719 C 35.507812 27.167969 27.652344 35.023438 17.996094 35.023438 "/>
</g>
<path style=" stroke:none;fill-rule:nonzero;fill:rgb(30.589294%,74.508667%,29.019165%);fill-opacity:1;" d="M 14.761719 15.28125 C 14.761719 15.28125 18.089844 12.59375 19.332031 10.757812 C 19.929688 9.878906 20.386719 6.933594 21.296875 7.09375 C 22.210938 7.25 22.933594 8.625 22.753906 10.15625 C 22.570312 11.683594 21.089844 13.800781 21.089844 13.800781 L 24.96875 13.96875 C 24.96875 13.96875 26.816406 13.875 26.816406 15.628906 C 26.816406 16.191406 25.9375 16.363281 25.9375 16.363281 C 25.9375 16.363281 27.214844 16.210938 27.117188 18.378906 C 27.082031 19.09375 25.9375 19.265625 25.9375 19.265625 C 25.9375 19.265625 27.191406 18.964844 27.144531 20.859375 C 27.117188 21.957031 25.9375 21.882812 25.9375 21.882812 C 25.9375 21.882812 27.113281 21.785156 26.820312 23.535156 C 26.722656 24.109375 24.496094 24.785156 23.128906 24.785156 C 20.441406 24.789062 15.558594 23.761719 15.160156 23.761719 C 14.761719 23.761719 8.84375 23.820312 8.84375 23.820312 L 8.84375 15.28125 L 14.761719 15.28125 "/>
<path style=" stroke:none;fill-rule:nonzero;fill:rgb(100%,100%,100%);fill-opacity:1;" d="M 15.160156 23.238281 C 15.308594 23.238281 15.613281 23.289062 16.472656 23.4375 C 18.132812 23.726562 21.222656 24.261719 23.117188 24.261719 L 23.128906 24.261719 C 24.339844 24.261719 26.019531 23.707031 26.3125 23.390625 C 26.371094 22.984375 26.339844 22.671875 26.222656 22.523438 C 26.15625 22.441406 26.0625 22.417969 26.003906 22.410156 C 25.941406 22.410156 25.90625 22.410156 25.90625 22.410156 C 25.632812 22.386719 25.425781 22.164062 25.421875 21.890625 C 25.417969 21.617188 25.625 21.386719 25.894531 21.359375 C 25.894531 21.359375 25.9375 21.355469 26.023438 21.359375 C 26.605469 21.335938 26.617188 20.980469 26.621094 20.847656 C 26.636719 20.21875 26.488281 19.972656 26.398438 19.878906 C 26.332031 19.808594 26.238281 19.773438 26.121094 19.773438 C 26.097656 19.773438 26.078125 19.773438 26.066406 19.777344 C 26.035156 19.78125 26.015625 19.785156 26.015625 19.785156 C 25.742188 19.824219 25.484375 19.640625 25.429688 19.367188 C 25.375 19.09375 25.546875 18.824219 25.816406 18.753906 C 25.816406 18.753906 25.84375 18.746094 25.894531 18.738281 C 26.265625 18.664062 26.585938 18.492188 26.589844 18.355469 C 26.628906 17.503906 26.429688 17.160156 26.304688 17.03125 C 26.183594 16.902344 26.046875 16.886719 25.992188 16.886719 C 25.710938 16.933594 25.460938 16.746094 25.40625 16.464844 C 25.351562 16.179688 25.554688 15.902344 25.835938 15.847656 C 26.039062 15.804688 26.261719 15.683594 26.292969 15.621094 C 26.289062 14.640625 25.492188 14.492188 25.015625 14.492188 L 24.992188 14.492188 C 24.980469 14.492188 24.960938 14.492188 24.949219 14.492188 L 21.066406 14.324219 C 20.875 14.316406 20.703125 14.203125 20.617188 14.03125 C 20.535156 13.859375 20.550781 13.65625 20.660156 13.5 C 20.671875 13.476562 22.066406 11.472656 22.230469 10.09375 C 22.378906 8.847656 21.832031 7.761719 21.25 7.617188 C 20.992188 7.804688 20.640625 8.855469 20.445312 9.425781 C 20.226562 10.070312 20.023438 10.679688 19.769531 11.054688 C 18.496094 12.929688 15.230469 15.578125 15.089844 15.691406 C 14.996094 15.765625 14.882812 15.804688 14.761719 15.804688 L 9.367188 15.804688 L 9.367188 23.289062 C 10.835938 23.273438 14.828125 23.238281 15.160156 23.238281 Z M 23.117188 25.3125 C 21.128906 25.3125 17.984375 24.765625 16.292969 24.472656 C 15.789062 24.386719 15.265625 24.292969 15.152344 24.289062 C 14.710938 24.289062 8.90625 24.34375 8.847656 24.34375 C 8.710938 24.34375 8.574219 24.292969 8.472656 24.191406 C 8.375 24.09375 8.316406 23.960938 8.316406 23.820312 L 8.316406 15.28125 C 8.316406 14.992188 8.554688 14.753906 8.84375 14.753906 L 14.574219 14.753906 C 15.214844 14.226562 17.855469 12 18.898438 10.464844 C 19.070312 10.207031 19.265625 9.640625 19.449219 9.089844 C 19.890625 7.789062 20.304688 6.5625 21.226562 6.5625 C 21.28125 6.5625 21.335938 6.566406 21.386719 6.574219 C 22.617188 6.785156 23.484375 8.453125 23.273438 10.21875 C 23.148438 11.265625 22.496094 12.519531 22.023438 13.3125 L 24.972656 13.441406 C 24.984375 13.441406 25 13.441406 25.015625 13.441406 C 26.171875 13.441406 27.339844 14.117188 27.339844 15.628906 C 27.339844 15.910156 27.234375 16.136719 27.078125 16.316406 C 27.496094 16.761719 27.683594 17.464844 27.640625 18.40625 C 27.625 18.726562 27.484375 19.011719 27.238281 19.242188 C 27.542969 19.617188 27.6875 20.164062 27.671875 20.871094 C 27.65625 21.40625 27.449219 21.777344 27.152344 22.023438 C 27.386719 22.417969 27.449219 22.953125 27.339844 23.621094 C 27.152344 24.734375 24.304688 25.3125 23.128906 25.3125 L 23.117188 25.3125 "/>
<path style=" stroke:none;fill-rule:nonzero;fill:rgb(100%,100%,100%);fill-opacity:1;" d="M 13.074219 22.429688 L 10.097656 22.429688 L 10.097656 16.617188 L 13.074219 16.617188 L 13.074219 22.429688 "/>
</g>
</svg>
