<?xml version="1.0" encoding="UTF-8"?>
<svg xmlns="http://www.w3.org/2000/svg" xmlns:xlink="http://www.w3.org/1999/xlink" width="75pt" height="74.999997pt" viewBox="0 0 75 74.999997" version="1.2">
<defs>
<clipPath id="clip1">
  <path d="M 31.949219 16.714844 L 58.199219 16.714844 L 58.199219 57.964844 L 31.949219 57.964844 Z M 31.949219 16.714844 "/>
</clipPath>
<clipPath id="clip2">
  <path d="M 13 38.570312 L 39 38.570312 L 39 47 L 13 47 Z M 13 38.570312 "/>
</clipPath>
<clipPath id="clip3">
  <path d="M 12 49 L 39.726562 49 L 39.726562 58.070312 L 12 58.070312 Z M 12 49 "/>
</clipPath>
<clipPath id="clip4">
  <path d="M 5.125 5.125 L 69.625 5.125 L 69.625 69.625 L 5.125 69.625 Z M 5.125 5.125 "/>
</clipPath>
</defs>
<g id="surface1">
<path style=" stroke:none;fill-rule:nonzero;fill:rgb(26.669312%,65.098572%,44.309998%);fill-opacity:1;" d="M 36.824219 0 C 35.617188 0 34.414062 0.0585938 33.214844 0.179688 C 32.015625 0.300781 30.824219 0.480469 29.640625 0.71875 C 28.457031 0.960938 27.289062 1.257812 26.136719 1.613281 C 24.980469 1.972656 23.847656 2.382812 22.734375 2.855469 C 21.617188 3.324219 20.53125 3.847656 19.464844 4.429688 C 18.402344 5.007812 17.367188 5.636719 16.367188 6.320312 C 15.363281 7.003906 14.394531 7.734375 13.464844 8.511719 C 12.53125 9.292969 11.636719 10.113281 10.785156 10.984375 C 9.933594 11.851562 9.125 12.761719 8.359375 13.710938 C 7.59375 14.660156 6.875 15.644531 6.207031 16.667969 C 5.535156 17.6875 4.917969 18.738281 4.347656 19.824219 C 3.78125 20.90625 3.265625 22.015625 2.804688 23.148438 C 2.339844 24.285156 1.9375 25.4375 1.585938 26.613281 C 1.234375 27.789062 0.941406 28.980469 0.707031 30.183594 C 0.472656 31.390625 0.296875 32.601562 0.175781 33.824219 C 0.0585938 35.046875 0 36.273438 0 37.5 C 0 38.726562 0.0585938 39.953125 0.175781 41.175781 C 0.296875 42.398438 0.472656 43.609375 0.707031 44.816406 C 0.941406 46.019531 1.234375 47.210938 1.585938 48.386719 C 1.9375 49.5625 2.339844 50.714844 2.804688 51.851562 C 3.265625 52.984375 3.78125 54.09375 4.347656 55.175781 C 4.917969 56.261719 5.535156 57.3125 6.207031 58.332031 C 6.875 59.355469 7.59375 60.339844 8.359375 61.289062 C 9.125 62.238281 9.933594 63.148438 10.785156 64.015625 C 11.636719 64.886719 12.53125 65.707031 13.464844 66.488281 C 14.394531 67.265625 15.363281 67.996094 16.367188 68.679688 C 17.367188 69.363281 18.402344 69.992188 19.464844 70.570312 C 20.53125 71.152344 21.617188 71.675781 22.734375 72.144531 C 23.847656 72.617188 24.980469 73.027344 26.136719 73.386719 C 27.289062 73.742188 28.457031 74.039062 29.640625 74.28125 C 30.824219 74.519531 32.015625 74.699219 33.214844 74.820312 C 34.414062 74.941406 35.617188 75 36.824219 75 C 38.03125 75 39.234375 74.941406 40.433594 74.820312 C 41.632812 74.699219 42.828125 74.519531 44.007812 74.28125 C 45.191406 74.039062 46.359375 73.742188 47.515625 73.386719 C 48.667969 73.027344 49.804688 72.617188 50.917969 72.144531 C 52.03125 71.675781 53.121094 71.152344 54.183594 70.570312 C 55.246094 69.992188 56.28125 69.363281 57.285156 68.679688 C 58.285156 67.996094 59.253906 67.265625 60.1875 66.488281 C 61.117188 65.707031 62.011719 64.886719 62.863281 64.015625 C 63.71875 63.148438 64.527344 62.238281 65.292969 61.289062 C 66.054688 60.339844 66.773438 59.355469 67.445312 58.332031 C 68.113281 57.3125 68.734375 56.261719 69.300781 55.175781 C 69.871094 54.09375 70.386719 52.984375 70.847656 51.851562 C 71.308594 50.714844 71.714844 49.5625 72.0625 48.386719 C 72.414062 47.210938 72.707031 46.019531 72.941406 44.816406 C 73.175781 43.609375 73.355469 42.398438 73.472656 41.175781 C 73.589844 39.953125 73.648438 38.726562 73.648438 37.5 C 73.648438 36.273438 73.589844 35.046875 73.472656 33.824219 C 73.355469 32.601562 73.175781 31.390625 72.941406 30.183594 C 72.707031 28.980469 72.414062 27.789062 72.0625 26.613281 C 71.714844 25.4375 71.308594 24.285156 70.847656 23.148438 C 70.386719 22.015625 69.871094 20.90625 69.300781 19.824219 C 68.734375 18.738281 68.113281 17.6875 67.445312 16.667969 C 66.773438 15.644531 66.054688 14.660156 65.292969 13.710938 C 64.527344 12.761719 63.71875 11.851562 62.863281 10.984375 C 62.011719 10.113281 61.117188 9.292969 60.1875 8.511719 C 59.253906 7.734375 58.285156 7.003906 57.285156 6.320312 C 56.28125 5.636719 55.246094 5.007812 54.183594 4.429688 C 53.121094 3.847656 52.03125 3.324219 50.917969 2.855469 C 49.804688 2.382812 48.667969 1.972656 47.515625 1.613281 C 46.359375 1.257812 45.191406 0.960938 44.007812 0.71875 C 42.828125 0.480469 41.632812 0.300781 40.433594 0.179688 C 39.234375 0.0585938 38.03125 0 36.824219 0 Z M 36.824219 0 "/>
<g clip-path="url(#clip1)" clip-rule="nonzero">
<path style=" stroke:none;fill-rule:nonzero;fill:rgb(100%,100%,100%);fill-opacity:1;" d="M 57.800781 16.71875 L 53.03125 16.71875 C 52.839844 16.71875 52.675781 16.851562 52.640625 17.03125 L 51.113281 24.5 L 45.453125 24.5 C 45.246094 21.035156 42.304688 18.277344 38.710938 18.277344 C 34.984375 18.277344 31.949219 21.242188 31.949219 24.890625 C 31.949219 27.988281 34.097656 30.613281 37.125 31.316406 C 36.933594 32.46875 36.78125 33.515625 36.722656 34.195312 C 36.300781 39.171875 44.820312 44.476562 46.269531 45.339844 L 46.269531 57.183594 L 40.300781 57.183594 C 40.082031 57.183594 39.90625 57.355469 39.90625 57.570312 C 39.90625 57.785156 40.082031 57.960938 40.300781 57.960938 L 53.03125 57.960938 C 53.25 57.960938 53.425781 57.785156 53.425781 57.570312 C 53.425781 57.355469 53.25 57.183594 53.03125 57.183594 L 47.0625 57.183594 L 47.0625 45.339844 C 48.511719 44.476562 57.027344 39.171875 56.609375 34.195312 C 56.410156 31.84375 55.066406 25.101562 55.011719 24.816406 C 54.972656 24.632812 54.8125 24.5 54.621094 24.5 L 51.925781 24.5 L 53.355469 17.496094 L 57.800781 17.496094 C 58.023438 17.496094 58.199219 17.324219 58.199219 17.109375 C 58.199219 16.894531 58.023438 16.71875 57.800781 16.71875 Z M 32.746094 24.890625 C 32.746094 21.671875 35.421875 19.054688 38.710938 19.054688 C 41.867188 19.054688 44.449219 21.464844 44.65625 24.5 L 38.710938 24.5 C 38.519531 24.5 38.355469 24.632812 38.320312 24.816406 C 38.285156 25 37.707031 27.894531 37.253906 30.550781 C 34.613281 29.90625 32.746094 27.601562 32.746094 24.890625 Z M 54.292969 25.277344 C 54.566406 26.664062 55.644531 32.234375 55.816406 34.257812 C 56.191406 38.703125 48.0625 43.820312 46.664062 44.664062 C 45.269531 43.820312 37.140625 38.707031 37.515625 34.257812 C 37.6875 32.234375 38.769531 26.664062 39.039062 25.277344 L 50.953125 25.277344 L 48.773438 35.949219 C 48.238281 36.207031 47.601562 36.390625 46.667969 36.390625 C 45.191406 36.390625 44.46875 35.9375 43.699219 35.457031 C 42.871094 34.9375 42.011719 34.398438 40.304688 34.398438 C 40.082031 34.398438 39.90625 34.574219 39.90625 34.789062 C 39.90625 35.003906 40.082031 35.175781 40.304688 35.175781 C 41.777344 35.175781 42.503906 35.628906 43.269531 36.109375 C 44.101562 36.628906 44.957031 37.167969 46.667969 37.167969 C 47.464844 37.167969 48.074219 37.046875 48.585938 36.871094 L 47.867188 40.375 C 47.824219 40.585938 47.964844 40.792969 48.179688 40.832031 C 48.207031 40.839844 48.230469 40.839844 48.257812 40.839844 C 48.445312 40.839844 48.609375 40.714844 48.648438 40.527344 L 49.480469 36.464844 C 49.679688 36.347656 49.875 36.230469 50.0625 36.109375 C 50.832031 35.628906 51.554688 35.175781 53.03125 35.175781 C 53.25 35.175781 53.429688 35.003906 53.429688 34.789062 C 53.429688 34.574219 53.25 34.398438 53.03125 34.398438 C 51.363281 34.398438 50.503906 34.914062 49.691406 35.417969 L 51.765625 25.277344 Z M 54.292969 25.277344 "/>
</g>
<g clip-path="url(#clip2)" clip-rule="nonzero">
<path style=" stroke:none;fill-rule:nonzero;fill:rgb(100%,100%,100%);fill-opacity:1;" d="M 13.808594 46.828125 L 37.976562 46.828125 C 38.234375 46.828125 38.40625 46.65625 38.40625 46.394531 L 38.40625 46.308594 C 38.320312 42.113281 32.617188 38.570312 25.871094 38.570312 C 19.085938 38.570312 13.335938 42.160156 13.335938 46.394531 C 13.378906 46.65625 13.550781 46.828125 13.808594 46.828125 Z M 25.871094 39.433594 C 31.835938 39.433594 37.109375 42.417969 37.5 45.964844 L 14.242188 45.964844 C 14.632812 42.460938 19.90625 39.433594 25.871094 39.433594 Z M 25.871094 39.433594 "/>
</g>
<path style=" stroke:none;fill-rule:nonzero;fill:rgb(100%,100%,100%);fill-opacity:1;" d="M 18.089844 43.628906 C 18.089844 43.746094 18.046875 43.851562 17.964844 43.933594 C 17.878906 44.019531 17.777344 44.0625 17.65625 44.0625 C 17.539062 44.0625 17.4375 44.019531 17.351562 43.933594 C 17.265625 43.851562 17.226562 43.746094 17.226562 43.628906 C 17.226562 43.507812 17.265625 43.40625 17.351562 43.324219 C 17.4375 43.238281 17.539062 43.195312 17.65625 43.195312 C 17.777344 43.195312 17.878906 43.238281 17.964844 43.324219 C 18.046875 43.40625 18.089844 43.507812 18.089844 43.628906 Z M 18.089844 43.628906 "/>
<path style=" stroke:none;fill-rule:nonzero;fill:rgb(100%,100%,100%);fill-opacity:1;" d="M 20.25 42.332031 C 20.25 42.449219 20.210938 42.550781 20.125 42.636719 C 20.039062 42.722656 19.9375 42.761719 19.820312 42.761719 C 19.699219 42.761719 19.597656 42.722656 19.511719 42.636719 C 19.429688 42.550781 19.386719 42.449219 19.386719 42.332031 C 19.386719 42.210938 19.429688 42.109375 19.511719 42.027344 C 19.597656 41.941406 19.699219 41.898438 19.820312 41.898438 C 19.9375 41.898438 20.039062 41.941406 20.125 42.027344 C 20.210938 42.109375 20.25 42.210938 20.25 42.332031 Z M 20.25 42.332031 "/>
<path style=" stroke:none;fill-rule:nonzero;fill:rgb(100%,100%,100%);fill-opacity:1;" d="M 23.925781 40.601562 C 23.882812 40.558594 23.796875 40.558594 23.753906 40.558594 C 23.492188 40.558594 23.320312 40.730469 23.320312 40.992188 C 23.320312 41.25 23.535156 41.421875 23.753906 41.421875 C 23.925781 41.421875 24.054688 41.335938 24.140625 41.164062 C 24.183594 41.121094 24.183594 41.035156 24.183594 40.992188 C 24.140625 40.859375 24.054688 40.6875 23.925781 40.601562 Z M 23.925781 40.601562 "/>
<path style=" stroke:none;fill-rule:nonzero;fill:rgb(100%,100%,100%);fill-opacity:1;" d="M 25.871094 43.195312 C 25.742188 43.195312 25.65625 43.238281 25.570312 43.324219 C 25.480469 43.414062 25.4375 43.5 25.4375 43.628906 C 25.4375 43.800781 25.527344 43.929688 25.699219 44.015625 C 25.742188 44.0625 25.828125 44.0625 25.871094 44.0625 C 26.128906 44.0625 26.304688 43.886719 26.304688 43.628906 C 26.304688 43.367188 26.128906 43.195312 25.871094 43.195312 Z M 25.871094 43.195312 "/>
<path style=" stroke:none;fill-rule:nonzero;fill:rgb(100%,100%,100%);fill-opacity:1;" d="M 28.03125 41.421875 C 28.03125 41.542969 27.992188 41.644531 27.90625 41.730469 C 27.820312 41.8125 27.71875 41.855469 27.601562 41.855469 C 27.480469 41.855469 27.378906 41.8125 27.296875 41.730469 C 27.210938 41.644531 27.167969 41.542969 27.167969 41.421875 C 27.167969 41.304688 27.210938 41.203125 27.296875 41.117188 C 27.378906 41.03125 27.480469 40.992188 27.601562 40.992188 C 27.71875 40.992188 27.820312 41.03125 27.90625 41.117188 C 27.992188 41.203125 28.03125 41.304688 28.03125 41.421875 Z M 28.03125 41.421875 "/>
<path style=" stroke:none;fill-rule:nonzero;fill:rgb(100%,100%,100%);fill-opacity:1;" d="M 30.84375 44.105469 C 30.582031 43.972656 30.238281 44.191406 30.238281 44.492188 C 30.238281 44.753906 30.453125 44.925781 30.671875 44.925781 C 30.800781 44.925781 30.886719 44.882812 30.972656 44.796875 C 31.058594 44.710938 31.101562 44.621094 31.101562 44.492188 C 31.058594 44.320312 30.972656 44.148438 30.84375 44.105469 Z M 30.84375 44.105469 "/>
<path style=" stroke:none;fill-rule:nonzero;fill:rgb(100%,100%,100%);fill-opacity:1;" d="M 33.652344 43.195312 C 33.394531 43.195312 33.21875 43.414062 33.21875 43.628906 C 33.21875 43.84375 33.4375 44.0625 33.652344 44.0625 C 33.78125 44.0625 33.867188 44.015625 33.957031 43.929688 C 34.042969 43.84375 34.085938 43.757812 34.085938 43.628906 C 34.085938 43.5 34.042969 43.414062 33.957031 43.324219 C 33.867188 43.238281 33.78125 43.195312 33.652344 43.195312 Z M 33.652344 43.195312 "/>
<path style=" stroke:none;fill-rule:nonzero;fill:rgb(100%,100%,100%);fill-opacity:1;" d="M 21.160156 43.886719 C 21.117188 43.929688 21.117188 44.015625 21.117188 44.0625 C 21.117188 44.320312 21.289062 44.492188 21.546875 44.492188 C 21.808594 44.492188 21.980469 44.277344 21.980469 44.0625 C 21.980469 43.929688 21.9375 43.84375 21.851562 43.757812 C 21.679688 43.585938 21.289062 43.628906 21.160156 43.886719 Z M 21.160156 43.886719 "/>
<path style=" stroke:none;fill-rule:nonzero;fill:rgb(100%,100%,100%);fill-opacity:1;" d="M 31.707031 41.507812 C 31.664062 41.464844 31.578125 41.464844 31.535156 41.464844 C 31.273438 41.464844 31.101562 41.640625 31.101562 41.898438 C 31.101562 42.160156 31.320312 42.332031 31.535156 42.332031 C 31.664062 42.332031 31.75 42.289062 31.835938 42.203125 C 31.921875 42.113281 31.96875 42.027344 31.96875 41.898438 C 31.921875 41.726562 31.835938 41.554688 31.707031 41.507812 Z M 31.707031 41.507812 "/>
<g clip-path="url(#clip3)" clip-rule="nonzero">
<path style=" stroke:none;fill-rule:nonzero;fill:rgb(100%,100%,100%);fill-opacity:1;" d="M 13.765625 54.566406 L 13.765625 55.734375 C 13.765625 56.816406 14.632812 58.070312 15.886719 58.070312 L 35.8125 58.070312 C 37.066406 58.070312 37.933594 56.816406 37.933594 55.691406 L 37.933594 54.523438 C 38.882812 54.308594 39.660156 53.3125 39.660156 52.234375 L 39.660156 51.757812 C 39.660156 50.632812 38.753906 49.8125 37.5 49.8125 L 24.921875 49.8125 C 24.921875 49.8125 24.878906 49.8125 24.832031 49.8125 L 18.132812 52.058594 L 16.75 50.71875 L 21.117188 50.71875 C 21.375 50.71875 21.546875 50.546875 21.546875 50.285156 C 21.546875 50.027344 21.375 49.855469 21.117188 49.855469 L 14.199219 49.855469 C 12.945312 49.855469 12.039062 50.675781 12.039062 51.800781 L 12.039062 52.277344 C 12.039062 53.355469 12.816406 54.308594 13.765625 54.566406 Z M 35.859375 57.203125 L 15.886719 57.203125 C 15.195312 57.203125 14.632812 56.382812 14.632812 55.691406 L 14.632812 54.609375 L 37.109375 54.609375 L 37.109375 55.691406 C 37.109375 56.382812 36.550781 57.203125 35.859375 57.203125 Z M 12.902344 51.800781 C 12.902344 51.066406 13.550781 50.71875 14.199219 50.71875 L 15.539062 50.71875 L 17.742188 52.925781 C 17.832031 53.011719 17.917969 53.054688 18.046875 53.054688 C 18.089844 53.054688 18.132812 53.054688 18.175781 53.011719 L 25.09375 50.71875 L 37.542969 50.71875 C 38.191406 50.71875 38.839844 51.066406 38.839844 51.800781 L 38.839844 52.277344 C 38.839844 53.011719 38.191406 53.746094 37.542969 53.746094 L 14.199219 53.746094 C 13.550781 53.746094 12.902344 53.011719 12.902344 52.277344 Z M 12.902344 51.800781 "/>
</g>
<path style=" stroke:none;fill-rule:nonzero;fill:rgb(100%,100%,100%);fill-opacity:1;" d="M 13.765625 48.339844 C 14.113281 48.339844 14.242188 48.425781 14.414062 48.515625 C 14.632812 48.644531 14.933594 48.773438 15.453125 48.773438 C 15.972656 48.773438 16.273438 48.644531 16.492188 48.515625 C 16.707031 48.425781 16.835938 48.339844 17.183594 48.339844 C 17.527344 48.339844 17.65625 48.425781 17.832031 48.515625 C 18.046875 48.644531 18.347656 48.773438 18.867188 48.773438 C 19.386719 48.773438 19.691406 48.644531 19.90625 48.515625 C 20.121094 48.425781 20.25 48.339844 20.597656 48.339844 C 20.941406 48.339844 21.074219 48.425781 21.246094 48.515625 C 21.460938 48.644531 21.765625 48.773438 22.285156 48.773438 C 22.800781 48.773438 23.105469 48.644531 23.320312 48.515625 C 23.535156 48.425781 23.667969 48.339844 24.011719 48.339844 C 24.359375 48.339844 24.488281 48.425781 24.703125 48.515625 C 24.921875 48.644531 25.222656 48.773438 25.742188 48.773438 C 26.261719 48.773438 26.5625 48.644531 26.777344 48.515625 C 26.996094 48.425781 27.125 48.339844 27.472656 48.339844 C 27.816406 48.339844 27.945312 48.425781 28.164062 48.515625 C 28.378906 48.644531 28.679688 48.773438 29.199219 48.773438 C 29.71875 48.773438 30.023438 48.644531 30.238281 48.515625 C 30.453125 48.425781 30.582031 48.339844 30.929688 48.339844 C 31.273438 48.339844 31.40625 48.425781 31.621094 48.515625 C 31.835938 48.644531 32.140625 48.773438 32.660156 48.773438 C 33.175781 48.773438 33.480469 48.644531 33.695312 48.515625 C 33.914062 48.425781 34.042969 48.339844 34.386719 48.339844 C 34.734375 48.339844 34.863281 48.425781 35.078125 48.515625 C 35.296875 48.644531 35.597656 48.773438 36.117188 48.773438 C 36.636719 48.773438 36.9375 48.644531 37.15625 48.515625 C 37.371094 48.425781 37.5 48.339844 37.847656 48.339844 C 38.105469 48.339844 38.277344 48.167969 38.277344 47.910156 C 38.277344 47.648438 38.105469 47.476562 37.847656 47.476562 C 37.328125 47.476562 37.023438 47.605469 36.808594 47.734375 C 36.59375 47.824219 36.460938 47.910156 36.117188 47.910156 C 35.769531 47.910156 35.640625 47.824219 35.425781 47.734375 C 35.210938 47.605469 34.90625 47.476562 34.34375 47.476562 C 33.824219 47.476562 33.523438 47.605469 33.308594 47.734375 C 33.089844 47.824219 32.960938 47.910156 32.617188 47.910156 C 32.269531 47.910156 32.140625 47.824219 31.921875 47.734375 C 31.707031 47.605469 31.40625 47.476562 30.886719 47.476562 C 30.367188 47.476562 30.066406 47.605469 29.847656 47.734375 C 29.632812 47.824219 29.503906 47.910156 29.15625 47.910156 C 28.8125 47.910156 28.679688 47.824219 28.464844 47.734375 C 28.25 47.605469 27.945312 47.476562 27.425781 47.476562 C 26.910156 47.476562 26.605469 47.605469 26.390625 47.734375 C 26.175781 47.824219 26.042969 47.910156 25.699219 47.910156 C 25.351562 47.910156 25.222656 47.824219 25.007812 47.734375 C 24.789062 47.605469 24.488281 47.476562 23.96875 47.476562 C 23.449219 47.476562 23.148438 47.605469 22.933594 47.734375 C 22.714844 47.824219 22.585938 47.910156 22.238281 47.910156 C 21.894531 47.910156 21.765625 47.824219 21.546875 47.734375 C 21.332031 47.605469 21.03125 47.476562 20.511719 47.476562 C 19.992188 47.476562 19.691406 47.605469 19.472656 47.734375 C 19.257812 47.824219 19.128906 47.910156 18.78125 47.910156 C 18.4375 47.910156 18.304688 47.824219 18.132812 47.734375 C 17.917969 47.605469 17.613281 47.476562 17.09375 47.476562 C 16.578125 47.476562 16.273438 47.605469 16.058594 47.734375 C 15.84375 47.824219 15.710938 47.910156 15.367188 47.910156 C 15.019531 47.910156 14.890625 47.824219 14.71875 47.734375 C 14.5 47.605469 14.199219 47.476562 13.679688 47.476562 C 13.421875 47.476562 13.25 47.648438 13.25 47.910156 C 13.25 48.167969 13.550781 48.339844 13.765625 48.339844 Z M 13.765625 48.339844 "/>
<g clip-path="url(#clip4)" clip-rule="nonzero">
<path style=" stroke:none;fill-rule:nonzero;fill:rgb(100%,100%,100%);fill-opacity:1;" d="M 37.375 69.625 C 19.59375 69.625 5.125 55.160156 5.125 37.375 C 5.125 19.59375 19.59375 5.125 37.375 5.125 C 55.160156 5.125 69.625 19.59375 69.625 37.375 C 69.625 55.160156 55.160156 69.625 37.375 69.625 Z M 37.375 5.695312 C 19.90625 5.695312 5.695312 19.90625 5.695312 37.375 C 5.695312 54.84375 19.90625 69.054688 37.375 69.054688 C 54.84375 69.054688 69.054688 54.84375 69.054688 37.375 C 69.054688 19.90625 54.84375 5.695312 37.375 5.695312 Z M 37.375 5.695312 "/>
</g>
</g>
</svg>
