<?xml version="1.0" encoding="UTF-8"?>
<svg xmlns="http://www.w3.org/2000/svg" xmlns:xlink="http://www.w3.org/1999/xlink" width="75pt" height="74.999997pt" viewBox="0 0 75 74.999997" version="1.2">
<defs>
<clipPath id="clip1">
  <path d="M 5.136719 5.136719 L 69.636719 5.136719 L 69.636719 69.636719 L 5.136719 69.636719 Z M 5.136719 5.136719 "/>
</clipPath>
<clipPath id="clip2">
  <path d="M 32 43 L 35 43 L 35 46 L 32 46 Z M 32 43 "/>
</clipPath>
<clipPath id="clip3">
  <path d="M 12.84375 41.707031 L 46.546875 14.207031 L 62.195312 33.382812 L 28.492188 60.882812 Z M 12.84375 41.707031 "/>
</clipPath>
<clipPath id="clip4">
  <path d="M 12.84375 41.707031 L 46.546875 14.207031 L 62.195312 33.382812 L 28.492188 60.882812 Z M 12.84375 41.707031 "/>
</clipPath>
<clipPath id="clip5">
  <path d="M 34 46 L 37 46 L 37 49 L 34 49 Z M 34 46 "/>
</clipPath>
<clipPath id="clip6">
  <path d="M 12.84375 41.707031 L 46.546875 14.207031 L 62.195312 33.382812 L 28.492188 60.882812 Z M 12.84375 41.707031 "/>
</clipPath>
<clipPath id="clip7">
  <path d="M 12.84375 41.707031 L 46.546875 14.207031 L 62.195312 33.382812 L 28.492188 60.882812 Z M 12.84375 41.707031 "/>
</clipPath>
<clipPath id="clip8">
  <path d="M 35 48 L 38 48 L 38 51 L 35 51 Z M 35 48 "/>
</clipPath>
<clipPath id="clip9">
  <path d="M 12.84375 41.707031 L 46.546875 14.207031 L 62.195312 33.382812 L 28.492188 60.882812 Z M 12.84375 41.707031 "/>
</clipPath>
<clipPath id="clip10">
  <path d="M 12.84375 41.707031 L 46.546875 14.207031 L 62.195312 33.382812 L 28.492188 60.882812 Z M 12.84375 41.707031 "/>
</clipPath>
<clipPath id="clip11">
  <path d="M 30 41 L 33 41 L 33 44 L 30 44 Z M 30 41 "/>
</clipPath>
<clipPath id="clip12">
  <path d="M 12.84375 41.707031 L 46.546875 14.207031 L 62.195312 33.382812 L 28.492188 60.882812 Z M 12.84375 41.707031 "/>
</clipPath>
<clipPath id="clip13">
  <path d="M 12.84375 41.707031 L 46.546875 14.207031 L 62.195312 33.382812 L 28.492188 60.882812 Z M 12.84375 41.707031 "/>
</clipPath>
<clipPath id="clip14">
  <path d="M 28 39 L 31 39 L 31 42 L 28 42 Z M 28 39 "/>
</clipPath>
<clipPath id="clip15">
  <path d="M 12.84375 41.707031 L 46.546875 14.207031 L 62.195312 33.382812 L 28.492188 60.882812 Z M 12.84375 41.707031 "/>
</clipPath>
<clipPath id="clip16">
  <path d="M 12.84375 41.707031 L 46.546875 14.207031 L 62.195312 33.382812 L 28.492188 60.882812 Z M 12.84375 41.707031 "/>
</clipPath>
<clipPath id="clip17">
  <path d="M 26 37 L 29 37 L 29 40 L 26 40 Z M 26 37 "/>
</clipPath>
<clipPath id="clip18">
  <path d="M 12.84375 41.707031 L 46.546875 14.207031 L 62.195312 33.382812 L 28.492188 60.882812 Z M 12.84375 41.707031 "/>
</clipPath>
<clipPath id="clip19">
  <path d="M 12.84375 41.707031 L 46.546875 14.207031 L 62.195312 33.382812 L 28.492188 60.882812 Z M 12.84375 41.707031 "/>
</clipPath>
<clipPath id="clip20">
  <path d="M 24 34 L 27 34 L 27 37 L 24 37 Z M 24 34 "/>
</clipPath>
<clipPath id="clip21">
  <path d="M 12.84375 41.707031 L 46.546875 14.207031 L 62.195312 33.382812 L 28.492188 60.882812 Z M 12.84375 41.707031 "/>
</clipPath>
<clipPath id="clip22">
  <path d="M 12.84375 41.707031 L 46.546875 14.207031 L 62.195312 33.382812 L 28.492188 60.882812 Z M 12.84375 41.707031 "/>
</clipPath>
<clipPath id="clip23">
  <path d="M 16 41 L 19 41 L 19 44 L 16 44 Z M 16 41 "/>
</clipPath>
<clipPath id="clip24">
  <path d="M 12.84375 41.707031 L 46.546875 14.207031 L 62.195312 33.382812 L 28.492188 60.882812 Z M 12.84375 41.707031 "/>
</clipPath>
<clipPath id="clip25">
  <path d="M 12.84375 41.707031 L 46.546875 14.207031 L 62.195312 33.382812 L 28.492188 60.882812 Z M 12.84375 41.707031 "/>
</clipPath>
<clipPath id="clip26">
  <path d="M 45 18 L 48 18 L 48 21 L 45 21 Z M 45 18 "/>
</clipPath>
<clipPath id="clip27">
  <path d="M 12.84375 41.707031 L 46.546875 14.207031 L 62.195312 33.382812 L 28.492188 60.882812 Z M 12.84375 41.707031 "/>
</clipPath>
<clipPath id="clip28">
  <path d="M 12.84375 41.707031 L 46.546875 14.207031 L 62.195312 33.382812 L 28.492188 60.882812 Z M 12.84375 41.707031 "/>
</clipPath>
<clipPath id="clip29">
  <path d="M 56 31 L 59 31 L 59 34 L 56 34 Z M 56 31 "/>
</clipPath>
<clipPath id="clip30">
  <path d="M 12.84375 41.707031 L 46.546875 14.207031 L 62.195312 33.382812 L 28.492188 60.882812 Z M 12.84375 41.707031 "/>
</clipPath>
<clipPath id="clip31">
  <path d="M 12.84375 41.707031 L 46.546875 14.207031 L 62.195312 33.382812 L 28.492188 60.882812 Z M 12.84375 41.707031 "/>
</clipPath>
<clipPath id="clip32">
  <path d="M 27 54 L 31 54 L 31 57 L 27 57 Z M 27 54 "/>
</clipPath>
<clipPath id="clip33">
  <path d="M 12.84375 41.707031 L 46.546875 14.207031 L 62.195312 33.382812 L 28.492188 60.882812 Z M 12.84375 41.707031 "/>
</clipPath>
<clipPath id="clip34">
  <path d="M 12.84375 41.707031 L 46.546875 14.207031 L 62.195312 33.382812 L 28.492188 60.882812 Z M 12.84375 41.707031 "/>
</clipPath>
<clipPath id="clip35">
  <path d="M 13 14 L 62 14 L 62 61 L 13 61 Z M 13 14 "/>
</clipPath>
<clipPath id="clip36">
  <path d="M 12.84375 41.707031 L 46.546875 14.207031 L 62.195312 33.382812 L 28.492188 60.882812 Z M 12.84375 41.707031 "/>
</clipPath>
<clipPath id="clip37">
  <path d="M 12.84375 41.707031 L 46.546875 14.207031 L 62.195312 33.382812 L 28.492188 60.882812 Z M 12.84375 41.707031 "/>
</clipPath>
<clipPath id="clip38">
  <path d="M 31 31 L 38 31 L 38 38 L 31 38 Z M 31 31 "/>
</clipPath>
<clipPath id="clip39">
  <path d="M 12.84375 41.707031 L 46.546875 14.207031 L 62.195312 33.382812 L 28.492188 60.882812 Z M 12.84375 41.707031 "/>
</clipPath>
<clipPath id="clip40">
  <path d="M 12.84375 41.707031 L 46.546875 14.207031 L 62.195312 33.382812 L 28.492188 60.882812 Z M 12.84375 41.707031 "/>
</clipPath>
<clipPath id="clip41">
  <path d="M 44 32 L 50 32 L 50 39 L 44 39 Z M 44 32 "/>
</clipPath>
<clipPath id="clip42">
  <path d="M 12.84375 41.707031 L 46.546875 14.207031 L 62.195312 33.382812 L 28.492188 60.882812 Z M 12.84375 41.707031 "/>
</clipPath>
<clipPath id="clip43">
  <path d="M 12.84375 41.707031 L 46.546875 14.207031 L 62.195312 33.382812 L 28.492188 60.882812 Z M 12.84375 41.707031 "/>
</clipPath>
<clipPath id="clip44">
  <path d="M 39 26 L 43 26 L 43 44 L 39 44 Z M 39 26 "/>
</clipPath>
<clipPath id="clip45">
  <path d="M 12.84375 41.707031 L 46.546875 14.207031 L 62.195312 33.382812 L 28.492188 60.882812 Z M 12.84375 41.707031 "/>
</clipPath>
<clipPath id="clip46">
  <path d="M 12.84375 41.707031 L 46.546875 14.207031 L 62.195312 33.382812 L 28.492188 60.882812 Z M 12.84375 41.707031 "/>
</clipPath>
</defs>
<g id="surface1">
<path style=" stroke:none;fill-rule:nonzero;fill:rgb(26.669312%,65.098572%,44.309998%);fill-opacity:1;" d="M 37.5 0 C 36.273438 0 35.046875 0.0585938 33.824219 0.179688 C 32.601562 0.300781 31.390625 0.480469 30.183594 0.71875 C 28.980469 0.960938 27.789062 1.257812 26.613281 1.613281 C 25.4375 1.972656 24.285156 2.382812 23.148438 2.855469 C 22.015625 3.324219 20.90625 3.847656 19.824219 4.429688 C 18.738281 5.007812 17.6875 5.636719 16.667969 6.320312 C 15.644531 7.003906 14.660156 7.734375 13.710938 8.511719 C 12.761719 9.292969 11.851562 10.113281 10.984375 10.984375 C 10.113281 11.851562 9.292969 12.761719 8.511719 13.710938 C 7.734375 14.660156 7.003906 15.644531 6.320312 16.667969 C 5.636719 17.6875 5.007812 18.738281 4.429688 19.824219 C 3.847656 20.90625 3.324219 22.015625 2.855469 23.148438 C 2.382812 24.285156 1.972656 25.4375 1.613281 26.613281 C 1.257812 27.789062 0.960938 28.980469 0.71875 30.183594 C 0.480469 31.390625 0.300781 32.601562 0.179688 33.824219 C 0.0585938 35.046875 0 36.273438 0 37.5 C 0 38.726562 0.0585938 39.953125 0.179688 41.175781 C 0.300781 42.398438 0.480469 43.609375 0.71875 44.816406 C 0.960938 46.019531 1.257812 47.210938 1.613281 48.386719 C 1.972656 49.5625 2.382812 50.714844 2.855469 51.851562 C 3.324219 52.984375 3.847656 54.09375 4.429688 55.175781 C 5.007812 56.261719 5.636719 57.3125 6.320312 58.332031 C 7.003906 59.355469 7.734375 60.339844 8.511719 61.289062 C 9.292969 62.238281 10.113281 63.148438 10.984375 64.015625 C 11.851562 64.886719 12.761719 65.707031 13.710938 66.488281 C 14.660156 67.265625 15.644531 67.996094 16.667969 68.679688 C 17.6875 69.363281 18.738281 69.992188 19.824219 70.570312 C 20.90625 71.152344 22.015625 71.675781 23.148438 72.144531 C 24.285156 72.617188 25.4375 73.027344 26.613281 73.386719 C 27.789062 73.742188 28.980469 74.039062 30.183594 74.28125 C 31.390625 74.519531 32.601562 74.699219 33.824219 74.820312 C 35.046875 74.941406 36.273438 75 37.5 75 C 38.726562 75 39.953125 74.941406 41.175781 74.820312 C 42.398438 74.699219 43.609375 74.519531 44.816406 74.28125 C 46.019531 74.039062 47.210938 73.742188 48.386719 73.386719 C 49.5625 73.027344 50.714844 72.617188 51.851562 72.144531 C 52.984375 71.675781 54.09375 71.152344 55.175781 70.570312 C 56.261719 69.992188 57.3125 69.363281 58.332031 68.679688 C 59.355469 67.996094 60.339844 67.265625 61.289062 66.488281 C 62.238281 65.707031 63.148438 64.886719 64.015625 64.015625 C 64.886719 63.148438 65.707031 62.238281 66.488281 61.289062 C 67.265625 60.339844 67.996094 59.355469 68.679688 58.332031 C 69.363281 57.3125 69.992188 56.261719 70.570312 55.175781 C 71.152344 54.09375 71.675781 52.984375 72.144531 51.851562 C 72.617188 50.714844 73.027344 49.5625 73.386719 48.386719 C 73.742188 47.210938 74.039062 46.019531 74.28125 44.816406 C 74.519531 43.609375 74.699219 42.398438 74.820312 41.175781 C 74.941406 39.953125 75 38.726562 75 37.5 C 75 36.273438 74.941406 35.046875 74.820312 33.824219 C 74.699219 32.601562 74.519531 31.390625 74.28125 30.183594 C 74.039062 28.980469 73.742188 27.789062 73.386719 26.613281 C 73.027344 25.4375 72.617188 24.285156 72.144531 23.148438 C 71.675781 22.015625 71.152344 20.90625 70.570312 19.824219 C 69.992188 18.738281 69.363281 17.6875 68.679688 16.667969 C 67.996094 15.644531 67.265625 14.660156 66.488281 13.710938 C 65.707031 12.761719 64.886719 11.851562 64.015625 10.984375 C 63.148438 10.113281 62.238281 9.292969 61.289062 8.511719 C 60.339844 7.734375 59.355469 7.003906 58.332031 6.320312 C 57.3125 5.636719 56.261719 5.007812 55.175781 4.429688 C 54.09375 3.847656 52.984375 3.324219 51.851562 2.855469 C 50.714844 2.382812 49.5625 1.972656 48.386719 1.613281 C 47.210938 1.257812 46.019531 0.960938 44.816406 0.71875 C 43.609375 0.480469 42.398438 0.300781 41.175781 0.179688 C 39.953125 0.0585938 38.726562 0 37.5 0 Z M 37.5 0 "/>
<g clip-path="url(#clip1)" clip-rule="nonzero">
<path style=" stroke:none;fill-rule:nonzero;fill:rgb(100%,100%,100%);fill-opacity:1;" d="M 37.386719 69.636719 C 19.605469 69.636719 5.136719 55.171875 5.136719 37.386719 C 5.136719 19.605469 19.605469 5.136719 37.386719 5.136719 C 55.171875 5.136719 69.636719 19.605469 69.636719 37.386719 C 69.636719 55.171875 55.171875 69.636719 37.386719 69.636719 Z M 37.386719 5.710938 C 19.921875 5.710938 5.710938 19.921875 5.710938 37.386719 C 5.710938 54.855469 19.921875 69.066406 37.386719 69.066406 C 54.855469 69.066406 69.066406 54.855469 69.066406 37.386719 C 69.066406 19.921875 54.855469 5.710938 37.386719 5.710938 Z M 37.386719 5.710938 "/>
</g>
<g clip-path="url(#clip2)" clip-rule="nonzero">
<g clip-path="url(#clip3)" clip-rule="nonzero">
<g clip-path="url(#clip4)" clip-rule="nonzero">
<path style=" stroke:none;fill-rule:nonzero;fill:rgb(100%,100%,100%);fill-opacity:1;" d="M 33.285156 43.816406 L 32.164062 44.734375 L 33.085938 45.859375 L 34.207031 44.945312 L 33.285156 43.816406 "/>
</g>
</g>
</g>
<g clip-path="url(#clip5)" clip-rule="nonzero">
<g clip-path="url(#clip6)" clip-rule="nonzero">
<g clip-path="url(#clip7)" clip-rule="nonzero">
<path style=" stroke:none;fill-rule:nonzero;fill:rgb(100%,100%,100%);fill-opacity:1;" d="M 35.128906 46.074219 L 34.003906 46.988281 L 34.925781 48.117188 L 36.046875 47.203125 L 35.128906 46.074219 "/>
</g>
</g>
</g>
<g clip-path="url(#clip8)" clip-rule="nonzero">
<g clip-path="url(#clip9)" clip-rule="nonzero">
<g clip-path="url(#clip10)" clip-rule="nonzero">
<path style=" stroke:none;fill-rule:nonzero;fill:rgb(100%,100%,100%);fill-opacity:1;" d="M 36.96875 48.328125 L 35.847656 49.246094 L 36.765625 50.375 L 37.890625 49.457031 L 36.96875 48.328125 "/>
</g>
</g>
</g>
<g clip-path="url(#clip11)" clip-rule="nonzero">
<g clip-path="url(#clip12)" clip-rule="nonzero">
<g clip-path="url(#clip13)" clip-rule="nonzero">
<path style=" stroke:none;fill-rule:nonzero;fill:rgb(100%,100%,100%);fill-opacity:1;" d="M 31.445312 41.5625 L 30.324219 42.476562 L 31.242188 43.605469 L 32.367188 42.6875 L 31.445312 41.5625 "/>
</g>
</g>
</g>
<g clip-path="url(#clip14)" clip-rule="nonzero">
<g clip-path="url(#clip15)" clip-rule="nonzero">
<g clip-path="url(#clip16)" clip-rule="nonzero">
<path style=" stroke:none;fill-rule:nonzero;fill:rgb(100%,100%,100%);fill-opacity:1;" d="M 29.605469 39.304688 L 28.484375 40.222656 L 29.402344 41.347656 L 30.527344 40.433594 L 29.605469 39.304688 "/>
</g>
</g>
</g>
<g clip-path="url(#clip17)" clip-rule="nonzero">
<g clip-path="url(#clip18)" clip-rule="nonzero">
<g clip-path="url(#clip19)" clip-rule="nonzero">
<path style=" stroke:none;fill-rule:nonzero;fill:rgb(100%,100%,100%);fill-opacity:1;" d="M 27.765625 37.050781 L 26.640625 37.964844 L 27.5625 39.09375 L 28.683594 38.175781 L 27.765625 37.050781 "/>
</g>
</g>
</g>
<g clip-path="url(#clip20)" clip-rule="nonzero">
<g clip-path="url(#clip21)" clip-rule="nonzero">
<g clip-path="url(#clip22)" clip-rule="nonzero">
<path style=" stroke:none;fill-rule:nonzero;fill:rgb(100%,100%,100%);fill-opacity:1;" d="M 25.921875 34.792969 L 24.800781 35.710938 L 25.722656 36.835938 L 26.84375 35.921875 L 25.921875 34.792969 "/>
</g>
</g>
</g>
<g clip-path="url(#clip23)" clip-rule="nonzero">
<g clip-path="url(#clip24)" clip-rule="nonzero">
<g clip-path="url(#clip25)" clip-rule="nonzero">
<path style=" stroke:none;fill-rule:nonzero;fill:rgb(100%,100%,100%);fill-opacity:1;" d="M 18.066406 41.207031 L 16.941406 42.121094 L 17.863281 43.25 L 18.984375 42.332031 L 18.066406 41.207031 "/>
</g>
</g>
</g>
<g clip-path="url(#clip26)" clip-rule="nonzero">
<g clip-path="url(#clip27)" clip-rule="nonzero">
<g clip-path="url(#clip28)" clip-rule="nonzero">
<path style=" stroke:none;fill-rule:nonzero;fill:rgb(100%,100%,100%);fill-opacity:1;" d="M 46.128906 18.304688 L 45.007812 19.222656 L 45.925781 20.347656 L 47.050781 19.433594 L 46.128906 18.304688 "/>
</g>
</g>
</g>
<g clip-path="url(#clip29)" clip-rule="nonzero">
<g clip-path="url(#clip30)" clip-rule="nonzero">
<g clip-path="url(#clip31)" clip-rule="nonzero">
<path style=" stroke:none;fill-rule:nonzero;fill:rgb(100%,100%,100%);fill-opacity:1;" d="M 57.175781 31.839844 L 56.050781 32.757812 L 56.972656 33.882812 L 58.09375 32.96875 L 57.175781 31.839844 "/>
</g>
</g>
</g>
<g clip-path="url(#clip32)" clip-rule="nonzero">
<g clip-path="url(#clip33)" clip-rule="nonzero">
<g clip-path="url(#clip34)" clip-rule="nonzero">
<path style=" stroke:none;fill-rule:nonzero;fill:rgb(100%,100%,100%);fill-opacity:1;" d="M 28.910156 56.785156 L 30.03125 55.871094 L 29.109375 54.742188 L 27.988281 55.65625 L 28.910156 56.785156 "/>
</g>
</g>
</g>
<g clip-path="url(#clip35)" clip-rule="nonzero">
<g clip-path="url(#clip36)" clip-rule="nonzero">
<g clip-path="url(#clip37)" clip-rule="nonzero">
<path style=" stroke:none;fill-rule:nonzero;fill:rgb(100%,100%,100%);fill-opacity:1;" d="M 50.046875 20.8125 C 48.371094 22.640625 48.246094 25.484375 49.867188 27.46875 C 51.488281 29.453125 54.300781 29.90625 56.425781 28.628906 L 60.136719 33.179688 L 28.707031 58.828125 L 24.992188 54.277344 C 26.667969 52.453125 26.789062 49.605469 25.171875 47.621094 C 23.550781 45.636719 20.738281 45.183594 18.613281 46.460938 L 14.898438 41.910156 L 46.332031 16.261719 Z M 45.972656 14.675781 L 13.417969 41.238281 C 13.109375 41.492188 13.0625 41.949219 13.316406 42.261719 L 17.917969 47.902344 C 18.171875 48.210938 18.632812 48.257812 18.941406 48.007812 C 20.488281 46.746094 22.777344 46.980469 24.046875 48.539062 C 25.316406 50.09375 25.089844 52.382812 23.542969 53.648438 C 23.234375 53.898438 23.1875 54.359375 23.441406 54.667969 L 28.042969 60.308594 C 28.296875 60.621094 28.757812 60.667969 29.066406 60.414062 L 61.621094 33.851562 C 61.929688 33.597656 61.976562 33.140625 61.722656 32.828125 L 57.121094 27.1875 C 56.867188 26.878906 56.40625 26.832031 56.097656 27.082031 C 54.550781 28.347656 52.257812 28.109375 50.988281 26.550781 C 49.722656 24.996094 49.949219 22.707031 51.496094 21.441406 C 51.804688 21.191406 51.851562 20.730469 51.597656 20.421875 L 46.996094 14.78125 C 46.742188 14.46875 46.28125 14.421875 45.972656 14.675781 "/>
</g>
</g>
</g>
<g clip-path="url(#clip38)" clip-rule="nonzero">
<g clip-path="url(#clip39)" clip-rule="nonzero">
<g clip-path="url(#clip40)" clip-rule="nonzero">
<path style=" stroke:none;fill-rule:nonzero;fill:rgb(100%,100%,100%);fill-opacity:1;" d="M 33.835938 33.03125 C 34.457031 32.527344 35.375 32.625 35.878906 33.246094 C 36.386719 33.867188 36.296875 34.785156 35.679688 35.289062 C 35.058594 35.792969 34.140625 35.699219 33.636719 35.078125 C 33.128906 34.457031 33.21875 33.539062 33.835938 33.03125 Z M 36.597656 36.417969 C 37.835938 35.40625 38.019531 33.574219 37.003906 32.328125 C 35.988281 31.085938 34.15625 30.894531 32.917969 31.90625 C 31.679688 32.914062 31.496094 34.75 32.511719 35.992188 C 33.527344 37.238281 35.359375 37.429688 36.597656 36.417969 "/>
</g>
</g>
</g>
<g clip-path="url(#clip41)" clip-rule="nonzero">
<g clip-path="url(#clip42)" clip-rule="nonzero">
<g clip-path="url(#clip43)" clip-rule="nonzero">
<path style=" stroke:none;fill-rule:nonzero;fill:rgb(100%,100%,100%);fill-opacity:1;" d="M 48.136719 34.515625 C 48.644531 35.136719 48.554688 36.054688 47.9375 36.5625 C 47.316406 37.066406 46.398438 36.96875 45.894531 36.347656 C 45.386719 35.726562 45.476562 34.808594 46.09375 34.304688 C 46.714844 33.800781 47.632812 33.894531 48.136719 34.515625 Z M 44.769531 37.265625 C 45.785156 38.507812 47.617188 38.699219 48.855469 37.6875 C 50.09375 36.679688 50.277344 34.84375 49.261719 33.601562 C 48.246094 32.355469 46.414062 32.167969 45.175781 33.175781 C 43.9375 34.1875 43.753906 36.019531 44.769531 37.265625 "/>
</g>
</g>
</g>
<g clip-path="url(#clip44)" clip-rule="nonzero">
<g clip-path="url(#clip45)" clip-rule="nonzero">
<g clip-path="url(#clip46)" clip-rule="nonzero">
<path style=" stroke:none;fill-rule:nonzero;fill:rgb(100%,100%,100%);fill-opacity:1;" d="M 40.800781 43.046875 L 42.417969 26.695312 L 40.972656 26.546875 L 39.355469 42.898438 L 40.800781 43.046875 "/>
</g>
</g>
</g>
</g>
</svg>
