<?xml version="1.0" encoding="UTF-8"?>
<svg xmlns="http://www.w3.org/2000/svg" xmlns:xlink="http://www.w3.org/1999/xlink" width="75pt" height="74.999997pt" viewBox="0 0 75 74.999997" version="1.2">
<defs>
<clipPath id="clip1">
  <path d="M 35.261719 13.230469 L 53.261719 13.230469 L 53.261719 34.980469 L 35.261719 34.980469 Z M 35.261719 13.230469 "/>
</clipPath>
<clipPath id="clip2">
  <path d="M 13 10 L 63 10 L 63 65 L 13 65 Z M 13 10 "/>
</clipPath>
<clipPath id="clip3">
  <path d="M 28.140625 74.191406 L 0.160156 29.769531 L 47.121094 0.191406 L 75.101562 44.613281 Z M 28.140625 74.191406 "/>
</clipPath>
<clipPath id="clip4">
  <path d="M 28.140625 74.191406 L 0.160156 29.769531 L 47.121094 0.191406 L 75.101562 44.613281 Z M 28.140625 74.191406 "/>
</clipPath>
<clipPath id="clip5">
  <path d="M 13 12 L 63 12 L 63 67 L 13 67 Z M 13 12 "/>
</clipPath>
<clipPath id="clip6">
  <path d="M 28.140625 74.191406 L 0.160156 29.769531 L 47.121094 0.191406 L 75.101562 44.613281 Z M 28.140625 74.191406 "/>
</clipPath>
<clipPath id="clip7">
  <path d="M 28.140625 74.191406 L 0.160156 29.769531 L 47.121094 0.191406 L 75.101562 44.613281 Z M 28.140625 74.191406 "/>
</clipPath>
<clipPath id="clip8">
  <path d="M 14 13 L 61 13 L 61 65 L 14 65 Z M 14 13 "/>
</clipPath>
<clipPath id="clip9">
  <path d="M 28.140625 74.191406 L 0.160156 29.769531 L 47.121094 0.191406 L 75.101562 44.613281 Z M 28.140625 74.191406 "/>
</clipPath>
<clipPath id="clip10">
  <path d="M 28.140625 74.191406 L 0.160156 29.769531 L 47.121094 0.191406 L 75.101562 44.613281 Z M 28.140625 74.191406 "/>
</clipPath>
<clipPath id="clip11">
  <path d="M 26.980469 23.199219 L 44.230469 23.199219 L 44.230469 50.949219 L 26.980469 50.949219 Z M 26.980469 23.199219 "/>
</clipPath>
</defs>
<g id="surface1">
<g clip-path="url(#clip1)" clip-rule="nonzero">
<path style=" stroke:none;fill-rule:nonzero;fill:rgb(100%,100%,100%);fill-opacity:1;" d="M 53.128906 17.773438 C 53.230469 17.628906 53.242188 17.441406 53.160156 17.285156 C 53.082031 17.128906 52.917969 17.03125 52.742188 17.03125 L 43.738281 17.03125 C 43.503906 14.910156 41.699219 13.257812 39.515625 13.257812 C 37.171875 13.257812 35.261719 15.164062 35.261719 17.503906 C 35.261719 19.84375 37.171875 21.746094 39.515625 21.746094 C 40.230469 21.746094 40.921875 21.558594 41.546875 21.21875 L 45.65625 27.082031 L 45.65625 34.007812 L 42.347656 34.007812 C 42.089844 34.007812 41.875 34.21875 41.875 34.480469 C 41.875 34.738281 42.089844 34.949219 42.347656 34.949219 L 49.910156 34.949219 C 50.167969 34.949219 50.378906 34.738281 50.378906 34.480469 C 50.378906 34.21875 50.167969 34.007812 49.910156 34.007812 L 46.601562 34.007812 L 46.601562 27.082031 Z M 46.128906 26.113281 L 40.421875 17.972656 L 51.835938 17.972656 Z M 39.515625 20.804688 C 37.691406 20.804688 36.207031 19.324219 36.207031 17.503906 C 36.207031 15.683594 37.691406 14.199219 39.515625 14.199219 C 41.175781 14.199219 42.554688 15.433594 42.785156 17.03125 L 39.515625 17.03125 C 39.339844 17.03125 39.175781 17.128906 39.09375 17.285156 C 39.015625 17.441406 39.027344 17.628906 39.128906 17.773438 L 41.003906 20.445312 C 40.542969 20.679688 40.039062 20.804688 39.515625 20.804688 Z M 39.515625 20.804688 "/>
</g>
<g clip-path="url(#clip2)" clip-rule="nonzero">
<g clip-path="url(#clip3)" clip-rule="nonzero">
<g clip-path="url(#clip4)" clip-rule="nonzero">
<path style=" stroke:none;fill-rule:nonzero;fill:rgb(74.119568%,73.728943%,73.728943%);fill-opacity:1;" d="M 16.035156 40.484375 C 15.308594 41.9375 14.582031 43.390625 13.855469 44.84375 C 13.144531 46.265625 14.527344 47.898438 15.199219 49.105469 C 17.867188 53.871094 20.535156 58.640625 23.203125 63.410156 C 23.382812 63.96875 23.839844 64.390625 24.554688 64.390625 C 24.707031 64.398438 24.859375 64.386719 25.011719 64.351562 C 30.335938 63.585938 35.65625 62.820312 40.980469 62.054688 C 42.269531 61.867188 44.941406 61.949219 45.621094 60.589844 C 46.304688 59.222656 46.988281 57.855469 47.671875 56.488281 C 52.621094 46.59375 57.570312 36.703125 62.519531 26.808594 C 62.941406 25.964844 62.648438 24.875 61.78125 24.449219 C 52.222656 19.753906 42.660156 15.054688 33.101562 10.359375 C 32.257812 9.945312 31.164062 10.246094 30.726562 11.113281 C 25.832031 20.902344 20.933594 30.695312 16.035156 40.484375 "/>
</g>
</g>
</g>
<g clip-path="url(#clip5)" clip-rule="nonzero">
<g clip-path="url(#clip6)" clip-rule="nonzero">
<g clip-path="url(#clip7)" clip-rule="nonzero">
<path style=" stroke:none;fill-rule:nonzero;fill:rgb(100%,100%,100%);fill-opacity:1;" d="M 15.59375 42.433594 C 14.867188 43.886719 14.140625 45.339844 13.414062 46.792969 C 12.703125 48.214844 14.089844 49.851562 14.761719 51.054688 C 17.425781 55.824219 20.09375 60.589844 22.761719 65.359375 C 22.941406 65.917969 23.398438 66.34375 24.117188 66.339844 C 24.269531 66.347656 24.417969 66.339844 24.570312 66.304688 C 29.894531 65.535156 35.21875 64.769531 40.539062 64.003906 C 41.828125 63.816406 44.5 63.898438 45.179688 62.539062 C 45.863281 61.171875 46.546875 59.804688 47.230469 58.441406 C 52.179688 48.546875 57.128906 38.652344 62.078125 28.757812 C 62.5 27.914062 62.210938 26.824219 61.339844 26.398438 C 51.78125 21.703125 42.222656 17.007812 32.660156 12.3125 C 31.816406 11.894531 30.722656 12.195312 30.289062 13.0625 C 25.390625 22.855469 20.492188 32.644531 15.59375 42.433594 "/>
</g>
</g>
</g>
<g clip-path="url(#clip8)" clip-rule="nonzero">
<g clip-path="url(#clip9)" clip-rule="nonzero">
<g clip-path="url(#clip10)" clip-rule="nonzero">
<path style=" stroke:none;fill-rule:nonzero;fill:rgb(26.669312%,65.098572%,44.309998%);fill-opacity:1;" d="M 27.832031 57.597656 C 28.832031 58.085938 29.238281 59.296875 28.738281 60.296875 C 28.234375 61.296875 27.019531 61.710938 26.019531 61.21875 C 25.019531 60.726562 24.613281 59.519531 25.113281 58.519531 C 25.613281 57.519531 26.832031 57.105469 27.832031 57.597656 Z M 24.339844 64.578125 L 43.589844 61.808594 L 60.523438 27.957031 L 31.84375 13.867188 L 14.910156 47.71875 L 24.339844 64.578125 "/>
</g>
</g>
</g>
<g clip-path="url(#clip11)" clip-rule="nonzero">
<path style=" stroke:none;fill-rule:nonzero;fill:rgb(100%,100%,100%);fill-opacity:1;" d="M 43.96875 23.203125 L 40.832031 23.203125 C 40.707031 23.203125 40.601562 23.292969 40.578125 23.414062 L 39.574219 28.4375 L 35.851562 28.4375 C 35.71875 26.105469 33.785156 24.25 31.421875 24.25 C 28.972656 24.25 26.980469 26.246094 26.980469 28.699219 C 26.980469 30.785156 28.390625 32.550781 30.378906 33.023438 C 30.257812 33.796875 30.15625 34.503906 30.117188 34.960938 C 29.839844 38.308594 35.4375 41.878906 36.390625 42.457031 L 36.390625 50.425781 L 32.46875 50.425781 C 32.324219 50.425781 32.207031 50.542969 32.207031 50.6875 C 32.207031 50.832031 32.324219 50.949219 32.46875 50.949219 L 40.832031 50.949219 C 40.976562 50.949219 41.09375 50.832031 41.09375 50.6875 C 41.09375 50.542969 40.976562 50.425781 40.832031 50.425781 L 36.910156 50.425781 L 36.910156 42.457031 C 37.863281 41.878906 43.460938 38.308594 43.183594 34.960938 C 43.054688 33.378906 42.171875 28.84375 42.132812 28.648438 C 42.109375 28.527344 42.003906 28.4375 41.878906 28.4375 L 40.105469 28.4375 L 41.046875 23.726562 L 43.96875 23.726562 C 44.113281 23.726562 44.230469 23.609375 44.230469 23.464844 C 44.230469 23.320312 44.113281 23.203125 43.96875 23.203125 Z M 27.503906 28.699219 C 27.503906 26.535156 29.261719 24.773438 31.421875 24.773438 C 33.496094 24.773438 35.195312 26.394531 35.332031 28.4375 L 31.421875 28.4375 C 31.296875 28.4375 31.191406 28.527344 31.167969 28.648438 C 31.144531 28.773438 30.765625 30.722656 30.464844 32.507812 C 28.730469 32.074219 27.503906 30.523438 27.503906 28.699219 Z M 41.660156 28.960938 C 41.839844 29.894531 42.550781 33.640625 42.664062 35.003906 C 42.910156 37.992188 37.566406 41.4375 36.652344 42.003906 C 35.734375 41.4375 30.390625 37.996094 30.636719 35.003906 C 30.75 33.640625 31.460938 29.894531 31.640625 28.960938 L 39.46875 28.960938 L 38.035156 36.140625 C 37.683594 36.3125 37.265625 36.4375 36.652344 36.4375 C 35.683594 36.4375 35.207031 36.132812 34.703125 35.808594 C 34.15625 35.457031 33.589844 35.097656 32.46875 35.097656 C 32.324219 35.097656 32.207031 35.214844 32.207031 35.359375 C 32.207031 35.503906 32.324219 35.621094 32.46875 35.621094 C 33.4375 35.621094 33.914062 35.925781 34.417969 36.25 C 34.964844 36.597656 35.527344 36.960938 36.652344 36.960938 C 37.175781 36.960938 37.574219 36.878906 37.910156 36.757812 L 37.441406 39.117188 C 37.410156 39.261719 37.503906 39.398438 37.644531 39.425781 C 37.664062 39.429688 37.679688 39.429688 37.699219 39.429688 C 37.820312 39.429688 37.929688 39.34375 37.953125 39.222656 L 38.5 36.484375 C 38.632812 36.410156 38.757812 36.328125 38.882812 36.25 C 39.386719 35.925781 39.863281 35.621094 40.832031 35.621094 C 40.976562 35.621094 41.09375 35.503906 41.09375 35.359375 C 41.09375 35.214844 40.976562 35.097656 40.832031 35.097656 C 39.738281 35.097656 39.171875 35.441406 38.640625 35.785156 L 40 28.960938 Z M 41.660156 28.960938 "/>
</g>
</g>
</svg>
