<?xml version="1.0" encoding="UTF-8"?>
<svg xmlns="http://www.w3.org/2000/svg" xmlns:xlink="http://www.w3.org/1999/xlink" width="75pt" height="74.999997pt" viewBox="0 0 75 74.999997" version="1.2">
<defs>
<clipPath id="clip1">
  <path d="M 21.765625 7.894531 L 47.726562 7.894531 L 47.726562 49.589844 L 21.765625 49.589844 Z M 21.765625 7.894531 "/>
</clipPath>
<clipPath id="clip2">
  <path d="M 5.136719 5.136719 L 70.039062 5.136719 L 70.039062 70.039062 L 5.136719 70.039062 Z M 5.136719 5.136719 "/>
</clipPath>
<clipPath id="clip3">
  <path d="M 24.5625 16.714844 L 50.523438 16.714844 L 50.523438 58.410156 L 24.5625 58.410156 Z M 24.5625 16.714844 "/>
</clipPath>
</defs>
<g id="surface1">
<g clip-path="url(#clip1)" clip-rule="nonzero">
<path style=" stroke:none;fill-rule:nonzero;fill:rgb(100%,100%,100%);fill-opacity:1;" d="M 47.335938 7.898438 L 42.613281 7.898438 C 42.425781 7.898438 42.265625 8.03125 42.230469 8.214844 L 40.71875 15.765625 L 35.121094 15.765625 C 34.917969 12.261719 32.007812 9.472656 28.453125 9.472656 C 24.765625 9.472656 21.765625 12.472656 21.765625 16.15625 C 21.765625 19.289062 23.890625 21.941406 26.886719 22.65625 C 26.699219 23.816406 26.546875 24.878906 26.488281 25.5625 C 26.070312 30.59375 34.496094 35.957031 35.929688 36.828125 L 35.929688 48.796875 L 30.027344 48.796875 C 29.8125 48.796875 29.632812 48.972656 29.632812 49.191406 C 29.632812 49.410156 29.8125 49.585938 30.027344 49.585938 L 42.613281 49.585938 C 42.832031 49.585938 43.007812 49.410156 43.007812 49.191406 C 43.007812 48.972656 42.832031 48.796875 42.613281 48.796875 L 36.714844 48.796875 L 36.714844 36.828125 C 38.144531 35.957031 46.570312 30.59375 46.152344 25.5625 C 45.957031 23.183594 44.628906 16.371094 44.574219 16.082031 C 44.539062 15.898438 44.375 15.765625 44.1875 15.765625 L 41.519531 15.765625 L 42.9375 8.6875 L 47.335938 8.6875 C 47.550781 8.6875 47.726562 8.511719 47.726562 8.292969 C 47.726562 8.074219 47.550781 7.898438 47.335938 7.898438 Z M 22.554688 16.15625 C 22.554688 12.90625 25.199219 10.257812 28.453125 10.257812 C 31.574219 10.257812 34.128906 12.695312 34.335938 15.765625 L 28.453125 15.765625 C 28.265625 15.765625 28.105469 15.898438 28.066406 16.082031 C 28.03125 16.269531 27.460938 19.195312 27.011719 21.878906 C 24.402344 21.230469 22.554688 18.902344 22.554688 16.15625 Z M 43.863281 16.550781 C 44.132812 17.953125 45.199219 23.582031 45.371094 25.628906 C 45.742188 30.121094 37.703125 35.292969 36.320312 36.148438 C 34.941406 35.292969 26.902344 30.125 27.273438 25.628906 C 27.441406 23.582031 28.511719 17.953125 28.777344 16.550781 L 40.5625 16.550781 L 38.402344 27.335938 C 37.875 27.597656 37.246094 27.78125 36.320312 27.78125 C 34.863281 27.78125 34.148438 27.324219 33.386719 26.835938 C 32.566406 26.3125 31.71875 25.769531 30.027344 25.769531 C 29.8125 25.769531 29.636719 25.945312 29.636719 26.164062 C 29.636719 26.378906 29.8125 26.554688 30.027344 26.554688 C 31.488281 26.554688 32.203125 27.015625 32.960938 27.5 C 33.785156 28.023438 34.632812 28.566406 36.320312 28.566406 C 37.113281 28.566406 37.714844 28.445312 38.21875 28.265625 L 37.511719 31.8125 C 37.464844 32.023438 37.605469 32.230469 37.820312 32.273438 C 37.84375 32.277344 37.871094 32.28125 37.898438 32.28125 C 38.082031 32.28125 38.242188 32.152344 38.28125 31.964844 L 39.105469 27.855469 C 39.304688 27.742188 39.492188 27.621094 39.679688 27.5 C 40.441406 27.015625 41.15625 26.554688 42.617188 26.554688 C 42.832031 26.554688 43.007812 26.378906 43.007812 26.164062 C 43.007812 25.945312 42.832031 25.769531 42.617188 25.769531 C 40.964844 25.769531 40.117188 26.289062 39.3125 26.800781 L 41.363281 16.550781 Z M 43.863281 16.550781 "/>
</g>
<path style=" stroke:none;fill-rule:nonzero;fill:rgb(26.669312%,65.098572%,44.309998%);fill-opacity:1;" d="M 37.5 0 C 36.273438 0 35.046875 0.0585938 33.824219 0.179688 C 32.601562 0.300781 31.390625 0.480469 30.183594 0.71875 C 28.980469 0.960938 27.789062 1.257812 26.613281 1.613281 C 25.4375 1.972656 24.285156 2.382812 23.148438 2.855469 C 22.015625 3.324219 20.90625 3.847656 19.824219 4.429688 C 18.738281 5.007812 17.6875 5.636719 16.667969 6.320312 C 15.644531 7.003906 14.660156 7.734375 13.710938 8.511719 C 12.761719 9.292969 11.851562 10.113281 10.984375 10.984375 C 10.113281 11.851562 9.292969 12.761719 8.511719 13.710938 C 7.734375 14.660156 7.003906 15.644531 6.320312 16.667969 C 5.636719 17.6875 5.007812 18.738281 4.429688 19.824219 C 3.847656 20.90625 3.324219 22.015625 2.855469 23.148438 C 2.382812 24.285156 1.972656 25.4375 1.613281 26.613281 C 1.257812 27.789062 0.960938 28.980469 0.71875 30.183594 C 0.480469 31.390625 0.300781 32.601562 0.179688 33.824219 C 0.0585938 35.046875 0 36.273438 0 37.5 C 0 38.726562 0.0585938 39.953125 0.179688 41.175781 C 0.300781 42.398438 0.480469 43.609375 0.71875 44.816406 C 0.960938 46.019531 1.257812 47.210938 1.613281 48.386719 C 1.972656 49.5625 2.382812 50.714844 2.855469 51.851562 C 3.324219 52.984375 3.847656 54.09375 4.429688 55.175781 C 5.007812 56.261719 5.636719 57.3125 6.320312 58.332031 C 7.003906 59.355469 7.734375 60.339844 8.511719 61.289062 C 9.292969 62.238281 10.113281 63.148438 10.984375 64.015625 C 11.851562 64.886719 12.761719 65.707031 13.710938 66.488281 C 14.660156 67.265625 15.644531 67.996094 16.667969 68.679688 C 17.6875 69.363281 18.738281 69.992188 19.824219 70.570312 C 20.90625 71.152344 22.015625 71.675781 23.148438 72.144531 C 24.285156 72.617188 25.4375 73.027344 26.613281 73.386719 C 27.789062 73.742188 28.980469 74.039062 30.183594 74.28125 C 31.390625 74.519531 32.601562 74.699219 33.824219 74.820312 C 35.046875 74.941406 36.273438 75 37.5 75 C 38.726562 75 39.953125 74.941406 41.175781 74.820312 C 42.398438 74.699219 43.609375 74.519531 44.816406 74.28125 C 46.019531 74.039062 47.210938 73.742188 48.386719 73.386719 C 49.5625 73.027344 50.714844 72.617188 51.851562 72.144531 C 52.984375 71.675781 54.09375 71.152344 55.175781 70.570312 C 56.261719 69.992188 57.3125 69.363281 58.332031 68.679688 C 59.355469 67.996094 60.339844 67.265625 61.289062 66.488281 C 62.238281 65.707031 63.148438 64.886719 64.015625 64.015625 C 64.886719 63.148438 65.707031 62.238281 66.488281 61.289062 C 67.265625 60.339844 67.996094 59.355469 68.679688 58.332031 C 69.363281 57.3125 69.992188 56.261719 70.570312 55.175781 C 71.152344 54.09375 71.675781 52.984375 72.144531 51.851562 C 72.617188 50.714844 73.027344 49.5625 73.386719 48.386719 C 73.742188 47.210938 74.039062 46.019531 74.28125 44.816406 C 74.519531 43.609375 74.699219 42.398438 74.820312 41.175781 C 74.941406 39.953125 75 38.726562 75 37.5 C 75 36.273438 74.941406 35.046875 74.820312 33.824219 C 74.699219 32.601562 74.519531 31.390625 74.28125 30.183594 C 74.039062 28.980469 73.742188 27.789062 73.386719 26.613281 C 73.027344 25.4375 72.617188 24.285156 72.144531 23.148438 C 71.675781 22.015625 71.152344 20.90625 70.570312 19.824219 C 69.992188 18.738281 69.363281 17.6875 68.679688 16.667969 C 67.996094 15.644531 67.265625 14.660156 66.488281 13.710938 C 65.707031 12.761719 64.886719 11.851562 64.015625 10.984375 C 63.148438 10.113281 62.238281 9.292969 61.289062 8.511719 C 60.339844 7.734375 59.355469 7.003906 58.332031 6.320312 C 57.3125 5.636719 56.261719 5.007812 55.175781 4.429688 C 54.09375 3.847656 52.984375 3.324219 51.851562 2.855469 C 50.714844 2.382812 49.5625 1.972656 48.386719 1.613281 C 47.210938 1.257812 46.019531 0.960938 44.816406 0.71875 C 43.609375 0.480469 42.398438 0.300781 41.175781 0.179688 C 39.953125 0.0585938 38.726562 0 37.5 0 Z M 37.5 0 "/>
<g clip-path="url(#clip2)" clip-rule="nonzero">
<path style=" stroke:none;fill-rule:nonzero;fill:rgb(100%,100%,100%);fill-opacity:1;" d="M 37.589844 70.039062 C 19.695312 70.039062 5.136719 55.480469 5.136719 37.589844 C 5.136719 19.695312 19.695312 5.136719 37.589844 5.136719 C 55.480469 5.136719 70.039062 19.695312 70.039062 37.589844 C 70.039062 55.480469 55.480469 70.039062 37.589844 70.039062 Z M 37.589844 5.710938 C 20.011719 5.710938 5.710938 20.011719 5.710938 37.589844 C 5.710938 55.164062 20.011719 69.464844 37.589844 69.464844 C 55.164062 69.464844 69.464844 55.164062 69.464844 37.589844 C 69.464844 20.011719 55.164062 5.710938 37.589844 5.710938 Z M 37.589844 5.710938 "/>
</g>
<g clip-path="url(#clip3)" clip-rule="nonzero">
<path style=" stroke:none;fill-rule:nonzero;fill:rgb(100%,100%,100%);fill-opacity:1;" d="M 50.128906 16.71875 L 45.410156 16.71875 C 45.222656 16.71875 45.058594 16.851562 45.023438 17.035156 L 43.511719 24.585938 L 37.914062 24.585938 C 37.710938 21.082031 34.800781 18.292969 31.25 18.292969 C 27.5625 18.292969 24.5625 21.292969 24.5625 24.976562 C 24.5625 28.109375 26.683594 30.761719 29.679688 31.472656 C 29.492188 32.636719 29.339844 33.695312 29.28125 34.382812 C 28.867188 39.414062 37.289062 44.777344 38.722656 45.648438 L 38.722656 57.617188 L 32.820312 57.617188 C 32.605469 57.617188 32.429688 57.792969 32.429688 58.011719 C 32.429688 58.226562 32.605469 58.40625 32.820312 58.40625 L 45.410156 58.40625 C 45.625 58.40625 45.800781 58.226562 45.800781 58.011719 C 45.800781 57.792969 45.625 57.617188 45.410156 57.617188 L 39.507812 57.617188 L 39.507812 45.648438 C 40.941406 44.777344 49.363281 39.414062 48.945312 34.382812 C 48.75 32.003906 47.421875 25.191406 47.367188 24.902344 C 47.332031 24.71875 47.167969 24.585938 46.980469 24.585938 L 44.316406 24.585938 L 45.730469 17.507812 L 50.128906 17.507812 C 50.34375 17.507812 50.523438 17.328125 50.523438 17.113281 C 50.523438 16.894531 50.34375 16.71875 50.128906 16.71875 Z M 25.347656 24.976562 C 25.347656 21.726562 27.996094 19.078125 31.25 19.078125 C 34.367188 19.078125 36.925781 21.515625 37.128906 24.585938 L 31.25 24.585938 C 31.058594 24.585938 30.898438 24.71875 30.863281 24.902344 C 30.824219 25.089844 30.257812 28.015625 29.804688 30.699219 C 27.195312 30.050781 25.347656 27.71875 25.347656 24.976562 Z M 46.65625 25.371094 C 46.925781 26.769531 47.992188 32.398438 48.164062 34.449219 C 48.535156 38.941406 40.496094 44.113281 39.113281 44.96875 C 37.734375 44.113281 29.695312 38.945312 30.066406 34.449219 C 30.238281 32.398438 31.304688 26.769531 31.574219 25.371094 L 43.355469 25.371094 L 41.199219 36.15625 C 40.667969 36.417969 40.042969 36.601562 39.117188 36.601562 C 37.65625 36.601562 36.941406 36.144531 36.179688 35.65625 C 35.359375 35.132812 34.511719 34.589844 32.820312 34.589844 C 32.605469 34.589844 32.429688 34.765625 32.429688 34.980469 C 32.429688 35.199219 32.605469 35.375 32.820312 35.375 C 34.28125 35.375 34.996094 35.835938 35.757812 36.320312 C 36.578125 36.84375 37.425781 37.386719 39.117188 37.386719 C 39.90625 37.386719 40.507812 37.265625 41.011719 37.085938 L 40.304688 40.632812 C 40.261719 40.84375 40.398438 41.050781 40.613281 41.09375 C 40.636719 41.097656 40.664062 41.101562 40.691406 41.101562 C 40.875 41.101562 41.039062 40.972656 41.074219 40.785156 L 41.898438 36.675781 C 42.097656 36.5625 42.289062 36.441406 42.476562 36.320312 C 43.234375 35.835938 43.953125 35.375 45.410156 35.375 C 45.625 35.375 45.800781 35.199219 45.800781 34.980469 C 45.800781 34.765625 45.625 34.589844 45.410156 34.589844 C 43.757812 34.589844 42.910156 35.109375 42.109375 35.621094 L 44.15625 25.371094 Z M 46.65625 25.371094 "/>
</g>
</g>
</svg>
