<?xml version="1.0" encoding="UTF-8"?>
<svg xmlns="http://www.w3.org/2000/svg" xmlns:xlink="http://www.w3.org/1999/xlink" width="75pt" height="74.999997pt" viewBox="0 0 75 74.999997" version="1.2">
<defs>
<clipPath id="clip1">
  <path d="M 5.136719 5.136719 L 69.636719 5.136719 L 69.636719 69.636719 L 5.136719 69.636719 Z M 5.136719 5.136719 "/>
</clipPath>
<clipPath id="clip2">
  <path d="M 19 23.269531 L 56 23.269531 L 56 36 L 19 36 Z M 19 23.269531 "/>
</clipPath>
<clipPath id="clip3">
  <path d="M 17.242188 39 L 57.742188 39 L 57.742188 51.769531 L 17.242188 51.769531 Z M 17.242188 39 "/>
</clipPath>
</defs>
<g id="surface1">
<path style=" stroke:none;fill-rule:nonzero;fill:rgb(26.669312%,65.098572%,44.309998%);fill-opacity:1;" d="M 37.5 0 C 36.273438 0 35.046875 0.0585938 33.824219 0.179688 C 32.601562 0.300781 31.390625 0.480469 30.183594 0.71875 C 28.980469 0.960938 27.789062 1.257812 26.613281 1.613281 C 25.4375 1.972656 24.285156 2.382812 23.148438 2.855469 C 22.015625 3.324219 20.90625 3.847656 19.824219 4.429688 C 18.738281 5.007812 17.6875 5.636719 16.667969 6.320312 C 15.644531 7.003906 14.660156 7.734375 13.710938 8.511719 C 12.761719 9.292969 11.851562 10.113281 10.984375 10.984375 C 10.113281 11.851562 9.292969 12.761719 8.511719 13.710938 C 7.734375 14.660156 7.003906 15.644531 6.320312 16.667969 C 5.636719 17.6875 5.007812 18.738281 4.429688 19.824219 C 3.847656 20.90625 3.324219 22.015625 2.855469 23.148438 C 2.382812 24.285156 1.972656 25.4375 1.613281 26.613281 C 1.257812 27.789062 0.960938 28.980469 0.71875 30.183594 C 0.480469 31.390625 0.300781 32.601562 0.179688 33.824219 C 0.0585938 35.046875 0 36.273438 0 37.5 C 0 38.726562 0.0585938 39.953125 0.179688 41.175781 C 0.300781 42.398438 0.480469 43.609375 0.71875 44.816406 C 0.960938 46.019531 1.257812 47.210938 1.613281 48.386719 C 1.972656 49.5625 2.382812 50.714844 2.855469 51.851562 C 3.324219 52.984375 3.847656 54.09375 4.429688 55.175781 C 5.007812 56.261719 5.636719 57.3125 6.320312 58.332031 C 7.003906 59.355469 7.734375 60.339844 8.511719 61.289062 C 9.292969 62.238281 10.113281 63.148438 10.984375 64.015625 C 11.851562 64.886719 12.761719 65.707031 13.710938 66.488281 C 14.660156 67.265625 15.644531 67.996094 16.667969 68.679688 C 17.6875 69.363281 18.738281 69.992188 19.824219 70.570312 C 20.90625 71.152344 22.015625 71.675781 23.148438 72.144531 C 24.285156 72.617188 25.4375 73.027344 26.613281 73.386719 C 27.789062 73.742188 28.980469 74.039062 30.183594 74.28125 C 31.390625 74.519531 32.601562 74.699219 33.824219 74.820312 C 35.046875 74.941406 36.273438 75 37.5 75 C 38.726562 75 39.953125 74.941406 41.175781 74.820312 C 42.398438 74.699219 43.609375 74.519531 44.816406 74.28125 C 46.019531 74.039062 47.210938 73.742188 48.386719 73.386719 C 49.5625 73.027344 50.714844 72.617188 51.851562 72.144531 C 52.984375 71.675781 54.09375 71.152344 55.175781 70.570312 C 56.261719 69.992188 57.3125 69.363281 58.332031 68.679688 C 59.355469 67.996094 60.339844 67.265625 61.289062 66.488281 C 62.238281 65.707031 63.148438 64.886719 64.015625 64.015625 C 64.886719 63.148438 65.707031 62.238281 66.488281 61.289062 C 67.265625 60.339844 67.996094 59.355469 68.679688 58.332031 C 69.363281 57.3125 69.992188 56.261719 70.570312 55.175781 C 71.152344 54.09375 71.675781 52.984375 72.144531 51.851562 C 72.617188 50.714844 73.027344 49.5625 73.386719 48.386719 C 73.742188 47.210938 74.039062 46.019531 74.28125 44.816406 C 74.519531 43.609375 74.699219 42.398438 74.820312 41.175781 C 74.941406 39.953125 75 38.726562 75 37.5 C 75 36.273438 74.941406 35.046875 74.820312 33.824219 C 74.699219 32.601562 74.519531 31.390625 74.28125 30.183594 C 74.039062 28.980469 73.742188 27.789062 73.386719 26.613281 C 73.027344 25.4375 72.617188 24.285156 72.144531 23.148438 C 71.675781 22.015625 71.152344 20.90625 70.570312 19.824219 C 69.992188 18.738281 69.363281 17.6875 68.679688 16.667969 C 67.996094 15.644531 67.265625 14.660156 66.488281 13.710938 C 65.707031 12.761719 64.886719 11.851562 64.015625 10.984375 C 63.148438 10.113281 62.238281 9.292969 61.289062 8.511719 C 60.339844 7.734375 59.355469 7.003906 58.332031 6.320312 C 57.3125 5.636719 56.261719 5.007812 55.175781 4.429688 C 54.09375 3.847656 52.984375 3.324219 51.851562 2.855469 C 50.714844 2.382812 49.5625 1.972656 48.386719 1.613281 C 47.210938 1.257812 46.019531 0.960938 44.816406 0.71875 C 43.609375 0.480469 42.398438 0.300781 41.175781 0.179688 C 39.953125 0.0585938 38.726562 0 37.5 0 Z M 37.5 0 "/>
<g clip-path="url(#clip1)" clip-rule="nonzero">
<path style=" stroke:none;fill-rule:nonzero;fill:rgb(100%,100%,100%);fill-opacity:1;" d="M 37.386719 69.636719 C 19.605469 69.636719 5.136719 55.171875 5.136719 37.386719 C 5.136719 19.605469 19.605469 5.136719 37.386719 5.136719 C 55.171875 5.136719 69.636719 19.605469 69.636719 37.386719 C 69.636719 55.171875 55.171875 69.636719 37.386719 69.636719 Z M 37.386719 5.710938 C 19.921875 5.710938 5.710938 19.921875 5.710938 37.386719 C 5.710938 54.855469 19.921875 69.066406 37.386719 69.066406 C 54.855469 69.066406 69.066406 54.855469 69.066406 37.386719 C 69.066406 19.921875 54.855469 5.710938 37.386719 5.710938 Z M 37.386719 5.710938 "/>
</g>
<g clip-path="url(#clip2)" clip-rule="nonzero">
<path style=" stroke:none;fill-rule:nonzero;fill:rgb(100%,100%,100%);fill-opacity:1;" d="M 19.925781 35.339844 L 55.183594 35.339844 C 55.5625 35.339844 55.8125 35.085938 55.8125 34.707031 L 55.8125 34.578125 C 55.6875 28.449219 47.363281 23.269531 37.523438 23.269531 C 27.621094 23.269531 19.230469 28.511719 19.230469 34.707031 C 19.296875 35.085938 19.546875 35.339844 19.925781 35.339844 Z M 37.523438 24.53125 C 46.226562 24.53125 53.921875 28.890625 54.488281 34.074219 L 20.558594 34.074219 C 21.125 28.957031 28.820312 24.53125 37.523438 24.53125 Z M 37.523438 24.53125 "/>
</g>
<path style=" stroke:none;fill-rule:nonzero;fill:rgb(100%,100%,100%);fill-opacity:1;" d="M 26.171875 30.660156 C 26.171875 30.835938 26.109375 30.984375 25.984375 31.109375 C 25.863281 31.230469 25.714844 31.292969 25.539062 31.292969 C 25.367188 31.292969 25.214844 31.230469 25.09375 31.109375 C 24.96875 30.984375 24.910156 30.835938 24.910156 30.660156 C 24.910156 30.488281 24.96875 30.339844 25.09375 30.214844 C 25.214844 30.089844 25.367188 30.03125 25.539062 30.03125 C 25.714844 30.03125 25.863281 30.089844 25.984375 30.214844 C 26.109375 30.339844 26.171875 30.488281 26.171875 30.660156 Z M 26.171875 30.660156 "/>
<path style=" stroke:none;fill-rule:nonzero;fill:rgb(100%,100%,100%);fill-opacity:1;" d="M 29.324219 28.765625 C 29.324219 28.941406 29.261719 29.089844 29.140625 29.210938 C 29.015625 29.335938 28.867188 29.398438 28.691406 29.398438 C 28.519531 29.398438 28.371094 29.335938 28.246094 29.210938 C 28.125 29.089844 28.0625 28.941406 28.0625 28.765625 C 28.0625 28.589844 28.125 28.441406 28.246094 28.320312 C 28.371094 28.195312 28.519531 28.132812 28.691406 28.132812 C 28.867188 28.132812 29.015625 28.195312 29.140625 28.320312 C 29.261719 28.441406 29.324219 28.589844 29.324219 28.765625 Z M 29.324219 28.765625 "/>
<path style=" stroke:none;fill-rule:nonzero;fill:rgb(100%,100%,100%);fill-opacity:1;" d="M 34.683594 26.238281 C 34.621094 26.175781 34.496094 26.175781 34.433594 26.175781 C 34.054688 26.175781 33.800781 26.429688 33.800781 26.808594 C 33.800781 27.1875 34.117188 27.4375 34.433594 27.4375 C 34.683594 27.4375 34.875 27.3125 35 27.058594 C 35.0625 26.996094 35.0625 26.871094 35.0625 26.808594 C 35 26.617188 34.875 26.363281 34.683594 26.238281 Z M 34.683594 26.238281 "/>
<path style=" stroke:none;fill-rule:nonzero;fill:rgb(100%,100%,100%);fill-opacity:1;" d="M 37.523438 30.03125 C 37.332031 30.03125 37.207031 30.09375 37.082031 30.21875 C 36.957031 30.347656 36.890625 30.472656 36.890625 30.660156 C 36.890625 30.914062 37.019531 31.105469 37.269531 31.230469 C 37.332031 31.292969 37.460938 31.292969 37.523438 31.292969 C 37.902344 31.292969 38.152344 31.039062 38.152344 30.660156 C 38.152344 30.28125 37.902344 30.03125 37.523438 30.03125 Z M 37.523438 30.03125 "/>
<path style=" stroke:none;fill-rule:nonzero;fill:rgb(100%,100%,100%);fill-opacity:1;" d="M 40.675781 27.4375 C 40.675781 27.613281 40.613281 27.761719 40.492188 27.886719 C 40.367188 28.007812 40.21875 28.070312 40.046875 28.070312 C 39.871094 28.070312 39.722656 28.007812 39.601562 27.886719 C 39.476562 27.761719 39.414062 27.613281 39.414062 27.4375 C 39.414062 27.265625 39.476562 27.117188 39.601562 26.992188 C 39.722656 26.867188 39.871094 26.808594 40.046875 26.808594 C 40.21875 26.808594 40.367188 26.867188 40.492188 26.992188 C 40.613281 27.117188 40.675781 27.265625 40.675781 27.4375 Z M 40.675781 27.4375 "/>
<path style=" stroke:none;fill-rule:nonzero;fill:rgb(100%,100%,100%);fill-opacity:1;" d="M 44.777344 31.355469 C 44.398438 31.167969 43.894531 31.484375 43.894531 31.925781 C 43.894531 32.304688 44.207031 32.558594 44.523438 32.558594 C 44.714844 32.558594 44.839844 32.496094 44.964844 32.367188 C 45.089844 32.242188 45.15625 32.117188 45.15625 31.925781 C 45.089844 31.671875 44.964844 31.421875 44.777344 31.355469 Z M 44.777344 31.355469 "/>
<path style=" stroke:none;fill-rule:nonzero;fill:rgb(100%,100%,100%);fill-opacity:1;" d="M 48.875 30.03125 C 48.496094 30.03125 48.246094 30.347656 48.246094 30.660156 C 48.246094 30.976562 48.558594 31.292969 48.875 31.292969 C 49.066406 31.292969 49.191406 31.230469 49.316406 31.105469 C 49.441406 30.976562 49.507812 30.851562 49.507812 30.660156 C 49.507812 30.472656 49.441406 30.347656 49.316406 30.21875 C 49.191406 30.09375 49.066406 30.03125 48.875 30.03125 Z M 48.875 30.03125 "/>
<path style=" stroke:none;fill-rule:nonzero;fill:rgb(100%,100%,100%);fill-opacity:1;" d="M 30.648438 31.039062 C 30.585938 31.105469 30.585938 31.230469 30.585938 31.292969 C 30.585938 31.671875 30.835938 31.925781 31.214844 31.925781 C 31.59375 31.925781 31.847656 31.609375 31.847656 31.292969 C 31.847656 31.105469 31.785156 30.976562 31.65625 30.851562 C 31.40625 30.597656 30.835938 30.660156 30.648438 31.039062 Z M 30.648438 31.039062 "/>
<path style=" stroke:none;fill-rule:nonzero;fill:rgb(100%,100%,100%);fill-opacity:1;" d="M 46.039062 27.566406 C 45.972656 27.503906 45.847656 27.503906 45.785156 27.503906 C 45.40625 27.503906 45.15625 27.753906 45.15625 28.132812 C 45.15625 28.511719 45.46875 28.765625 45.785156 28.765625 C 45.972656 28.765625 46.101562 28.703125 46.226562 28.578125 C 46.351562 28.449219 46.414062 28.324219 46.414062 28.132812 C 46.351562 27.882812 46.226562 27.628906 46.039062 27.566406 Z M 46.039062 27.566406 "/>
<g clip-path="url(#clip3)" clip-rule="nonzero">
<path style=" stroke:none;fill-rule:nonzero;fill:rgb(100%,100%,100%);fill-opacity:1;" d="M 19.863281 46.648438 L 19.863281 48.355469 C 19.863281 49.9375 21.125 51.769531 22.953125 51.769531 L 52.027344 51.769531 C 53.859375 51.769531 55.121094 49.9375 55.121094 48.292969 L 55.121094 46.585938 C 56.507812 46.269531 57.640625 44.816406 57.640625 43.238281 L 57.640625 42.542969 C 57.640625 40.898438 56.316406 39.699219 54.488281 39.699219 L 36.136719 39.699219 C 36.136719 39.699219 36.070312 39.699219 36.007812 39.699219 L 26.234375 42.984375 L 24.214844 41.027344 L 30.585938 41.027344 C 30.964844 41.027344 31.214844 40.773438 31.214844 40.394531 C 31.214844 40.015625 30.964844 39.761719 30.585938 39.761719 L 20.492188 39.761719 C 18.664062 39.761719 17.339844 40.960938 17.339844 42.605469 L 17.339844 43.300781 C 17.339844 44.878906 18.476562 46.269531 19.863281 46.648438 Z M 52.09375 50.503906 L 22.953125 50.503906 C 21.945312 50.503906 21.125 49.304688 21.125 48.292969 L 21.125 46.710938 L 53.921875 46.710938 L 53.921875 48.292969 C 53.921875 49.304688 53.101562 50.503906 52.09375 50.503906 Z M 18.601562 42.605469 C 18.601562 41.53125 19.546875 41.027344 20.492188 41.027344 L 22.449219 41.027344 L 25.664062 44.25 C 25.792969 44.375 25.917969 44.4375 26.105469 44.4375 C 26.171875 44.4375 26.234375 44.4375 26.296875 44.375 L 36.386719 41.027344 L 54.550781 41.027344 C 55.496094 41.027344 56.445312 41.53125 56.445312 42.605469 L 56.445312 43.300781 C 56.445312 44.375 55.496094 45.449219 54.550781 45.449219 L 20.492188 45.449219 C 19.546875 45.449219 18.601562 44.375 18.601562 43.300781 Z M 18.601562 42.605469 "/>
</g>
<path style=" stroke:none;fill-rule:nonzero;fill:rgb(100%,100%,100%);fill-opacity:1;" d="M 19.863281 37.550781 C 20.367188 37.550781 20.558594 37.675781 20.808594 37.800781 C 21.125 37.992188 21.566406 38.183594 22.324219 38.183594 C 23.078125 38.183594 23.519531 37.992188 23.835938 37.800781 C 24.152344 37.675781 24.339844 37.550781 24.84375 37.550781 C 25.351562 37.550781 25.539062 37.675781 25.792969 37.800781 C 26.105469 37.992188 26.546875 38.183594 27.304688 38.183594 C 28.0625 38.183594 28.503906 37.992188 28.820312 37.800781 C 29.132812 37.675781 29.324219 37.550781 29.828125 37.550781 C 30.332031 37.550781 30.523438 37.675781 30.773438 37.800781 C 31.089844 37.992188 31.53125 38.183594 32.289062 38.183594 C 33.042969 38.183594 33.484375 37.992188 33.800781 37.800781 C 34.117188 37.675781 34.304688 37.550781 34.8125 37.550781 C 35.316406 37.550781 35.503906 37.675781 35.820312 37.800781 C 36.136719 37.992188 36.578125 38.183594 37.332031 38.183594 C 38.089844 38.183594 38.53125 37.992188 38.847656 37.800781 C 39.164062 37.675781 39.351562 37.550781 39.855469 37.550781 C 40.359375 37.550781 40.550781 37.675781 40.867188 37.800781 C 41.179688 37.992188 41.621094 38.183594 42.378906 38.183594 C 43.136719 38.183594 43.578125 37.992188 43.894531 37.800781 C 44.207031 37.675781 44.398438 37.550781 44.902344 37.550781 C 45.40625 37.550781 45.597656 37.675781 45.910156 37.800781 C 46.226562 37.992188 46.667969 38.183594 47.425781 38.183594 C 48.183594 38.183594 48.625 37.992188 48.9375 37.800781 C 49.253906 37.675781 49.441406 37.550781 49.949219 37.550781 C 50.453125 37.550781 50.640625 37.675781 50.957031 37.800781 C 51.273438 37.992188 51.714844 38.183594 52.46875 38.183594 C 53.226562 38.183594 53.667969 37.992188 53.984375 37.800781 C 54.300781 37.675781 54.488281 37.550781 54.992188 37.550781 C 55.371094 37.550781 55.625 37.296875 55.625 36.917969 C 55.625 36.539062 55.371094 36.285156 54.992188 36.285156 C 54.238281 36.285156 53.796875 36.476562 53.480469 36.664062 C 53.164062 36.792969 52.976562 36.917969 52.46875 36.917969 C 51.964844 36.917969 51.777344 36.792969 51.460938 36.664062 C 51.144531 36.476562 50.703125 36.285156 49.882812 36.285156 C 49.128906 36.285156 48.6875 36.476562 48.371094 36.664062 C 48.054688 36.792969 47.867188 36.917969 47.363281 36.917969 C 46.855469 36.917969 46.667969 36.792969 46.351562 36.664062 C 46.039062 36.476562 45.597656 36.285156 44.839844 36.285156 C 44.082031 36.285156 43.640625 36.476562 43.324219 36.664062 C 43.011719 36.792969 42.820312 36.917969 42.316406 36.917969 C 41.8125 36.917969 41.621094 36.792969 41.308594 36.664062 C 40.992188 36.476562 40.550781 36.285156 39.792969 36.285156 C 39.035156 36.285156 38.59375 36.476562 38.28125 36.664062 C 37.964844 36.792969 37.773438 36.917969 37.269531 36.917969 C 36.765625 36.917969 36.578125 36.792969 36.261719 36.664062 C 35.945312 36.476562 35.503906 36.285156 34.746094 36.285156 C 33.992188 36.285156 33.550781 36.476562 33.234375 36.664062 C 32.917969 36.792969 32.730469 36.917969 32.226562 36.917969 C 31.71875 36.917969 31.53125 36.792969 31.214844 36.664062 C 30.902344 36.476562 30.457031 36.285156 29.703125 36.285156 C 28.945312 36.285156 28.503906 36.476562 28.1875 36.664062 C 27.871094 36.792969 27.683594 36.917969 27.179688 36.917969 C 26.675781 36.917969 26.484375 36.792969 26.234375 36.664062 C 25.917969 36.476562 25.476562 36.285156 24.71875 36.285156 C 23.960938 36.285156 23.519531 36.476562 23.207031 36.664062 C 22.890625 36.792969 22.703125 36.917969 22.195312 36.917969 C 21.691406 36.917969 21.503906 36.792969 21.25 36.664062 C 20.933594 36.476562 20.492188 36.285156 19.738281 36.285156 C 19.359375 36.285156 19.105469 36.539062 19.105469 36.917969 C 19.105469 37.296875 19.546875 37.550781 19.863281 37.550781 Z M 19.863281 37.550781 "/>
</g>
</svg>
