<?xml version="1.0" encoding="UTF-8"?>
<svg xmlns="http://www.w3.org/2000/svg" xmlns:xlink="http://www.w3.org/1999/xlink" width="75pt" height="74.999997pt" viewBox="0 0 75 74.999997" version="1.2">
<defs>
<clipPath id="clip1">
  <path d="M 35.261719 13.230469 L 53.410156 13.230469 L 53.410156 35.058594 L 35.261719 35.058594 Z M 35.261719 13.230469 "/>
</clipPath>
<clipPath id="clip2">
  <path d="M 13 9 L 63 9 L 63 65 L 13 65 Z M 13 9 "/>
</clipPath>
<clipPath id="clip3">
  <path d="M 28.144531 74.195312 L -0.03125 29.464844 L 46.925781 -0.113281 L 75.101562 44.621094 Z M 28.144531 74.195312 "/>
</clipPath>
<clipPath id="clip4">
  <path d="M 28.144531 74.195312 L -0.03125 29.464844 L 46.925781 -0.113281 L 75.101562 44.621094 Z M 28.144531 74.195312 "/>
</clipPath>
<clipPath id="clip5">
  <path d="M 13 11 L 63 11 L 63 67 L 13 67 Z M 13 11 "/>
</clipPath>
<clipPath id="clip6">
  <path d="M 28.144531 74.195312 L -0.03125 29.464844 L 46.925781 -0.113281 L 75.101562 44.621094 Z M 28.144531 74.195312 "/>
</clipPath>
<clipPath id="clip7">
  <path d="M 28.144531 74.195312 L -0.03125 29.464844 L 46.925781 -0.113281 L 75.101562 44.621094 Z M 28.144531 74.195312 "/>
</clipPath>
<clipPath id="clip8">
  <path d="M 14 13 L 61 13 L 61 65 L 14 65 Z M 14 13 "/>
</clipPath>
<clipPath id="clip9">
  <path d="M 28.144531 74.195312 L -0.03125 29.464844 L 46.925781 -0.113281 L 75.101562 44.621094 Z M 28.144531 74.195312 "/>
</clipPath>
<clipPath id="clip10">
  <path d="M 28.144531 74.195312 L -0.03125 29.464844 L 46.925781 -0.113281 L 75.101562 44.621094 Z M 28.144531 74.195312 "/>
</clipPath>
<clipPath id="clip11">
  <path d="M 26 28.84375 L 48 28.84375 L 48 36 L 26 36 Z M 26 28.84375 "/>
</clipPath>
<clipPath id="clip12">
  <path d="M 25.75 38 L 49 38 L 49 45.34375 L 25.75 45.34375 Z M 25.75 38 "/>
</clipPath>
</defs>
<g id="surface1">
<g clip-path="url(#clip1)" clip-rule="nonzero">
<path style=" stroke:none;fill-rule:nonzero;fill:rgb(100%,100%,100%);fill-opacity:1;" d="M 53.277344 17.789062 C 53.378906 17.644531 53.390625 17.453125 53.308594 17.296875 C 53.226562 17.140625 53.0625 17.042969 52.886719 17.042969 L 43.808594 17.042969 C 43.570312 14.914062 41.753906 13.253906 39.550781 13.253906 C 37.1875 13.253906 35.261719 15.167969 35.261719 17.515625 C 35.261719 19.867188 37.1875 21.777344 39.550781 21.777344 C 40.273438 21.777344 40.96875 21.589844 41.597656 21.25 L 45.742188 27.132812 L 45.742188 34.085938 L 42.40625 34.085938 C 42.144531 34.085938 41.929688 34.296875 41.929688 34.558594 C 41.929688 34.820312 42.144531 35.035156 42.40625 35.035156 L 50.027344 35.035156 C 50.292969 35.035156 50.503906 34.820312 50.503906 34.558594 C 50.503906 34.296875 50.292969 34.085938 50.027344 34.085938 L 46.695312 34.085938 L 46.695312 27.132812 Z M 46.21875 26.160156 L 40.464844 17.988281 L 51.972656 17.988281 Z M 39.550781 20.832031 C 37.710938 20.832031 36.214844 19.34375 36.214844 17.515625 C 36.214844 15.6875 37.710938 14.203125 39.550781 14.203125 C 41.226562 14.203125 42.613281 15.4375 42.847656 17.042969 L 39.550781 17.042969 C 39.371094 17.042969 39.210938 17.140625 39.128906 17.296875 C 39.046875 17.453125 39.058594 17.644531 39.160156 17.789062 L 41.050781 20.472656 C 40.585938 20.703125 40.078125 20.832031 39.550781 20.832031 Z M 39.550781 20.832031 "/>
</g>
<g clip-path="url(#clip2)" clip-rule="nonzero">
<g clip-path="url(#clip3)" clip-rule="nonzero">
<g clip-path="url(#clip4)" clip-rule="nonzero">
<path style=" stroke:none;fill-rule:nonzero;fill:rgb(74.119568%,73.728943%,73.728943%);fill-opacity:1;" d="M 15.90625 40.28125 C 15.183594 41.738281 14.460938 43.199219 13.734375 44.65625 C 13.027344 46.082031 14.421875 47.730469 15.097656 48.941406 C 17.785156 53.742188 20.472656 58.542969 23.160156 63.34375 C 23.34375 63.90625 23.800781 64.332031 24.519531 64.335938 C 24.671875 64.34375 24.824219 64.332031 24.976562 64.296875 C 30.304688 63.542969 35.636719 62.789062 40.96875 62.035156 C 42.257812 61.855469 44.9375 61.941406 45.613281 60.582031 C 46.292969 59.210938 46.972656 57.839844 47.65625 56.464844 C 52.582031 46.539062 57.511719 36.613281 62.4375 26.683594 C 62.859375 25.839844 62.5625 24.742188 61.691406 24.3125 C 52.097656 19.558594 42.503906 14.8125 32.910156 10.0625 C 32.066406 9.644531 30.96875 9.9375 30.535156 10.8125 C 25.660156 20.636719 20.78125 30.457031 15.90625 40.28125 "/>
</g>
</g>
</g>
<g clip-path="url(#clip5)" clip-rule="nonzero">
<g clip-path="url(#clip6)" clip-rule="nonzero">
<g clip-path="url(#clip7)" clip-rule="nonzero">
<path style=" stroke:none;fill-rule:nonzero;fill:rgb(100%,100%,100%);fill-opacity:1;" d="M 15.472656 42.242188 C 14.746094 43.699219 14.023438 45.15625 13.300781 46.613281 C 12.589844 48.042969 13.984375 49.6875 14.660156 50.898438 C 17.347656 55.699219 20.035156 60.5 22.722656 65.300781 C 22.90625 65.863281 23.363281 66.292969 24.085938 66.292969 C 24.238281 66.300781 24.390625 66.289062 24.539062 66.253906 C 29.871094 65.503906 35.203125 64.75 40.535156 63.996094 C 41.824219 63.8125 44.5 63.902344 45.175781 62.539062 C 45.859375 61.167969 46.539062 59.796875 47.21875 58.425781 C 52.148438 48.496094 57.074219 38.570312 62.003906 28.644531 C 62.421875 27.796875 62.128906 26.699219 61.253906 26.269531 C 51.660156 21.519531 42.070312 16.769531 32.476562 12.019531 C 31.628906 11.601562 30.535156 11.898438 30.101562 12.769531 C 25.222656 22.59375 20.347656 32.417969 15.472656 42.242188 "/>
</g>
</g>
</g>
<g clip-path="url(#clip8)" clip-rule="nonzero">
<g clip-path="url(#clip9)" clip-rule="nonzero">
<g clip-path="url(#clip10)" clip-rule="nonzero">
<path style=" stroke:none;fill-rule:nonzero;fill:rgb(26.669312%,65.098572%,44.309998%);fill-opacity:1;" d="M 27.78125 57.515625 C 28.785156 58.011719 29.191406 59.230469 28.695312 60.234375 C 28.195312 61.234375 26.980469 61.648438 25.976562 61.148438 C 24.972656 60.652344 24.5625 59.4375 25.058594 58.433594 C 25.558594 57.429688 26.777344 57.019531 27.78125 57.515625 Z M 24.300781 64.519531 L 43.582031 61.796875 L 60.441406 27.832031 L 31.664062 13.582031 L 14.800781 47.546875 L 24.300781 64.519531 "/>
</g>
</g>
</g>
<g clip-path="url(#clip11)" clip-rule="nonzero">
<path style=" stroke:none;fill-rule:nonzero;fill:rgb(100%,100%,100%);fill-opacity:1;" d="M 27.292969 35.832031 L 47.53125 35.832031 C 47.746094 35.832031 47.890625 35.6875 47.890625 35.464844 L 47.890625 35.394531 C 47.820312 31.84375 43.039062 28.84375 37.394531 28.84375 C 31.710938 28.84375 26.894531 31.882812 26.894531 35.464844 C 26.929688 35.6875 27.074219 35.832031 27.292969 35.832031 Z M 37.394531 29.578125 C 42.390625 29.578125 46.804688 32.101562 47.132812 35.101562 L 27.65625 35.101562 C 27.980469 32.136719 32.398438 29.578125 37.394531 29.578125 Z M 37.394531 29.578125 "/>
</g>
<path style=" stroke:none;fill-rule:nonzero;fill:rgb(100%,100%,100%);fill-opacity:1;" d="M 30.875 33.125 C 30.875 33.226562 30.839844 33.3125 30.769531 33.382812 C 30.699219 33.457031 30.613281 33.492188 30.515625 33.492188 C 30.414062 33.492188 30.328125 33.457031 30.257812 33.382812 C 30.1875 33.3125 30.152344 33.226562 30.152344 33.125 C 30.152344 33.023438 30.1875 32.9375 30.257812 32.867188 C 30.328125 32.792969 30.414062 32.757812 30.515625 32.757812 C 30.613281 32.757812 30.699219 32.792969 30.769531 32.867188 C 30.839844 32.9375 30.875 33.023438 30.875 33.125 Z M 30.875 33.125 "/>
<path style=" stroke:none;fill-rule:nonzero;fill:rgb(100%,100%,100%);fill-opacity:1;" d="M 32.6875 32.027344 C 32.6875 32.128906 32.652344 32.214844 32.582031 32.285156 C 32.511719 32.359375 32.425781 32.394531 32.324219 32.394531 C 32.226562 32.394531 32.140625 32.359375 32.070312 32.285156 C 31.996094 32.214844 31.960938 32.128906 31.960938 32.027344 C 31.960938 31.925781 31.996094 31.839844 32.070312 31.769531 C 32.140625 31.695312 32.226562 31.660156 32.324219 31.660156 C 32.425781 31.660156 32.511719 31.695312 32.582031 31.769531 C 32.652344 31.839844 32.6875 31.925781 32.6875 32.027344 Z M 32.6875 32.027344 "/>
<path style=" stroke:none;fill-rule:nonzero;fill:rgb(100%,100%,100%);fill-opacity:1;" d="M 35.765625 30.5625 C 35.726562 30.527344 35.65625 30.527344 35.617188 30.527344 C 35.402344 30.527344 35.257812 30.671875 35.257812 30.894531 C 35.257812 31.113281 35.4375 31.257812 35.617188 31.257812 C 35.765625 31.257812 35.871094 31.1875 35.945312 31.039062 C 35.980469 31.003906 35.980469 30.929688 35.980469 30.894531 C 35.945312 30.785156 35.871094 30.636719 35.765625 30.5625 Z M 35.765625 30.5625 "/>
<path style=" stroke:none;fill-rule:nonzero;fill:rgb(100%,100%,100%);fill-opacity:1;" d="M 37.394531 32.757812 C 37.285156 32.757812 37.210938 32.796875 37.140625 32.867188 C 37.066406 32.941406 37.03125 33.015625 37.03125 33.125 C 37.03125 33.269531 37.101562 33.382812 37.25 33.453125 C 37.285156 33.492188 37.355469 33.492188 37.394531 33.492188 C 37.609375 33.492188 37.753906 33.34375 37.753906 33.125 C 37.753906 32.90625 37.609375 32.757812 37.394531 32.757812 Z M 37.394531 32.757812 "/>
<path style=" stroke:none;fill-rule:nonzero;fill:rgb(100%,100%,100%);fill-opacity:1;" d="M 39.203125 31.257812 C 39.203125 31.359375 39.167969 31.445312 39.097656 31.519531 C 39.027344 31.589844 38.941406 31.625 38.839844 31.625 C 38.742188 31.625 38.65625 31.589844 38.585938 31.519531 C 38.515625 31.445312 38.480469 31.359375 38.480469 31.257812 C 38.480469 31.15625 38.515625 31.070312 38.585938 31 C 38.65625 30.929688 38.742188 30.894531 38.839844 30.894531 C 38.941406 30.894531 39.027344 30.929688 39.097656 31 C 39.167969 31.070312 39.203125 31.15625 39.203125 31.257812 Z M 39.203125 31.257812 "/>
<path style=" stroke:none;fill-rule:nonzero;fill:rgb(100%,100%,100%);fill-opacity:1;" d="M 41.554688 33.527344 C 41.339844 33.417969 41.050781 33.601562 41.050781 33.855469 C 41.050781 34.078125 41.230469 34.222656 41.410156 34.222656 C 41.519531 34.222656 41.59375 34.1875 41.664062 34.113281 C 41.738281 34.039062 41.773438 33.964844 41.773438 33.855469 C 41.738281 33.710938 41.664062 33.5625 41.554688 33.527344 Z M 41.554688 33.527344 "/>
<path style=" stroke:none;fill-rule:nonzero;fill:rgb(100%,100%,100%);fill-opacity:1;" d="M 43.910156 32.757812 C 43.691406 32.757812 43.546875 32.941406 43.546875 33.125 C 43.546875 33.308594 43.726562 33.492188 43.910156 33.492188 C 44.019531 33.492188 44.089844 33.453125 44.164062 33.382812 C 44.234375 33.308594 44.269531 33.234375 44.269531 33.125 C 44.269531 33.015625 44.234375 32.941406 44.164062 32.867188 C 44.089844 32.796875 44.019531 32.757812 43.910156 32.757812 Z M 43.910156 32.757812 "/>
<path style=" stroke:none;fill-rule:nonzero;fill:rgb(100%,100%,100%);fill-opacity:1;" d="M 33.445312 33.34375 C 33.410156 33.382812 33.410156 33.453125 33.410156 33.492188 C 33.410156 33.710938 33.554688 33.855469 33.773438 33.855469 C 33.988281 33.855469 34.136719 33.671875 34.136719 33.492188 C 34.136719 33.382812 34.097656 33.308594 34.027344 33.234375 C 33.882812 33.089844 33.554688 33.125 33.445312 33.34375 Z M 33.445312 33.34375 "/>
<path style=" stroke:none;fill-rule:nonzero;fill:rgb(100%,100%,100%);fill-opacity:1;" d="M 42.28125 31.332031 C 42.242188 31.296875 42.171875 31.296875 42.136719 31.296875 C 41.917969 31.296875 41.773438 31.441406 41.773438 31.660156 C 41.773438 31.882812 41.953125 32.027344 42.136719 32.027344 C 42.242188 32.027344 42.316406 31.992188 42.390625 31.917969 C 42.460938 31.84375 42.496094 31.769531 42.496094 31.660156 C 42.460938 31.515625 42.390625 31.367188 42.28125 31.332031 Z M 42.28125 31.332031 "/>
<g clip-path="url(#clip12)" clip-rule="nonzero">
<path style=" stroke:none;fill-rule:nonzero;fill:rgb(100%,100%,100%);fill-opacity:1;" d="M 27.257812 42.382812 L 27.257812 43.367188 C 27.257812 44.285156 27.980469 45.34375 29.03125 45.34375 L 45.71875 45.34375 C 46.769531 45.34375 47.492188 44.285156 47.492188 43.332031 L 47.492188 42.34375 C 48.289062 42.160156 48.941406 41.320312 48.941406 40.40625 L 48.941406 40.003906 C 48.941406 39.050781 48.179688 38.355469 47.132812 38.355469 L 36.597656 38.355469 C 36.597656 38.355469 36.558594 38.355469 36.523438 38.355469 L 30.914062 40.257812 L 29.753906 39.125 L 33.410156 39.125 C 33.628906 39.125 33.773438 38.980469 33.773438 38.757812 C 33.773438 38.539062 33.628906 38.394531 33.410156 38.394531 L 27.617188 38.394531 C 26.570312 38.394531 25.808594 39.089844 25.808594 40.039062 L 25.808594 40.441406 C 25.808594 41.355469 26.460938 42.160156 27.257812 42.382812 Z M 45.753906 44.613281 L 29.03125 44.613281 C 28.449219 44.613281 27.980469 43.917969 27.980469 43.332031 L 27.980469 42.417969 L 46.804688 42.417969 L 46.804688 43.332031 C 46.804688 43.917969 46.335938 44.613281 45.753906 44.613281 Z M 26.53125 40.039062 C 26.53125 39.417969 27.074219 39.125 27.617188 39.125 L 28.742188 39.125 L 30.585938 40.992188 C 30.660156 41.0625 30.730469 41.101562 30.839844 41.101562 C 30.875 41.101562 30.914062 41.101562 30.949219 41.0625 L 36.742188 39.125 L 47.167969 39.125 C 47.710938 39.125 48.253906 39.417969 48.253906 40.039062 L 48.253906 40.441406 C 48.253906 41.0625 47.710938 41.6875 47.167969 41.6875 L 27.617188 41.6875 C 27.074219 41.6875 26.53125 41.0625 26.53125 40.441406 Z M 26.53125 40.039062 "/>
</g>
<path style=" stroke:none;fill-rule:nonzero;fill:rgb(100%,100%,100%);fill-opacity:1;" d="M 27.257812 37.113281 C 27.546875 37.113281 27.65625 37.1875 27.800781 37.257812 C 27.980469 37.367188 28.234375 37.480469 28.667969 37.480469 C 29.101562 37.480469 29.355469 37.367188 29.539062 37.257812 C 29.71875 37.1875 29.828125 37.113281 30.117188 37.113281 C 30.40625 37.113281 30.515625 37.1875 30.660156 37.257812 C 30.839844 37.367188 31.09375 37.480469 31.527344 37.480469 C 31.960938 37.480469 32.214844 37.367188 32.398438 37.257812 C 32.578125 37.1875 32.6875 37.113281 32.976562 37.113281 C 33.265625 37.113281 33.375 37.1875 33.519531 37.257812 C 33.699219 37.367188 33.953125 37.480469 34.386719 37.480469 C 34.824219 37.480469 35.074219 37.367188 35.257812 37.257812 C 35.4375 37.1875 35.546875 37.113281 35.835938 37.113281 C 36.125 37.113281 36.234375 37.1875 36.414062 37.257812 C 36.597656 37.367188 36.851562 37.480469 37.285156 37.480469 C 37.71875 37.480469 37.972656 37.367188 38.152344 37.257812 C 38.335938 37.1875 38.441406 37.113281 38.734375 37.113281 C 39.023438 37.113281 39.128906 37.1875 39.3125 37.257812 C 39.492188 37.367188 39.746094 37.480469 40.179688 37.480469 C 40.613281 37.480469 40.867188 37.367188 41.050781 37.257812 C 41.230469 37.1875 41.339844 37.113281 41.628906 37.113281 C 41.917969 37.113281 42.027344 37.1875 42.207031 37.257812 C 42.390625 37.367188 42.640625 37.480469 43.078125 37.480469 C 43.511719 37.480469 43.765625 37.367188 43.945312 37.257812 C 44.125 37.1875 44.234375 37.113281 44.523438 37.113281 C 44.8125 37.113281 44.921875 37.1875 45.105469 37.257812 C 45.285156 37.367188 45.539062 37.480469 45.972656 37.480469 C 46.40625 37.480469 46.660156 37.367188 46.839844 37.257812 C 47.023438 37.1875 47.132812 37.113281 47.421875 37.113281 C 47.636719 37.113281 47.78125 36.964844 47.78125 36.746094 C 47.78125 36.527344 47.636719 36.382812 47.421875 36.382812 C 46.988281 36.382812 46.734375 36.492188 46.550781 36.601562 C 46.371094 36.671875 46.261719 36.746094 45.972656 36.746094 C 45.683594 36.746094 45.574219 36.671875 45.394531 36.601562 C 45.210938 36.492188 44.960938 36.382812 44.488281 36.382812 C 44.054688 36.382812 43.800781 36.492188 43.621094 36.601562 C 43.4375 36.671875 43.332031 36.746094 43.039062 36.746094 C 42.75 36.746094 42.640625 36.671875 42.460938 36.601562 C 42.28125 36.492188 42.027344 36.382812 41.59375 36.382812 C 41.15625 36.382812 40.90625 36.492188 40.722656 36.601562 C 40.542969 36.671875 40.433594 36.746094 40.144531 36.746094 C 39.855469 36.746094 39.746094 36.671875 39.566406 36.601562 C 39.382812 36.492188 39.128906 36.382812 38.695312 36.382812 C 38.261719 36.382812 38.007812 36.492188 37.828125 36.601562 C 37.644531 36.671875 37.539062 36.746094 37.25 36.746094 C 36.957031 36.746094 36.851562 36.671875 36.667969 36.601562 C 36.488281 36.492188 36.234375 36.382812 35.800781 36.382812 C 35.367188 36.382812 35.113281 36.492188 34.929688 36.601562 C 34.75 36.671875 34.640625 36.746094 34.351562 36.746094 C 34.0625 36.746094 33.953125 36.671875 33.773438 36.601562 C 33.589844 36.492188 33.339844 36.382812 32.902344 36.382812 C 32.46875 36.382812 32.214844 36.492188 32.035156 36.601562 C 31.855469 36.671875 31.746094 36.746094 31.457031 36.746094 C 31.167969 36.746094 31.058594 36.671875 30.914062 36.601562 C 30.730469 36.492188 30.476562 36.382812 30.042969 36.382812 C 29.609375 36.382812 29.355469 36.492188 29.175781 36.601562 C 28.992188 36.671875 28.886719 36.746094 28.597656 36.746094 C 28.304688 36.746094 28.199219 36.671875 28.054688 36.601562 C 27.871094 36.492188 27.617188 36.382812 27.183594 36.382812 C 26.964844 36.382812 26.820312 36.527344 26.820312 36.746094 C 26.820312 36.964844 27.074219 37.113281 27.257812 37.113281 Z M 27.257812 37.113281 "/>
</g>
</svg>
