<?xml version="1.0" encoding="UTF-8"?>
<svg xmlns="http://www.w3.org/2000/svg" xmlns:xlink="http://www.w3.org/1999/xlink" width="75pt" height="74.999997pt" viewBox="0 0 75 74.999997" version="1.2">
<defs>
<clipPath id="clip1">
  <path d="M 55 33 L 64.617188 33 L 64.617188 46 L 55 46 Z M 55 33 "/>
</clipPath>
<clipPath id="clip2">
  <path d="M 10.617188 22 L 26 22 L 26 46 L 10.617188 46 Z M 10.617188 22 "/>
</clipPath>
<clipPath id="clip3">
  <path d="M 28 22 L 37 22 L 37 52.691406 L 28 52.691406 Z M 28 22 "/>
</clipPath>
<clipPath id="clip4">
  <path d="M 5.136719 5.136719 L 69.636719 5.136719 L 69.636719 69.636719 L 5.136719 69.636719 Z M 5.136719 5.136719 "/>
</clipPath>
</defs>
<g id="surface1">
<path style=" stroke:none;fill-rule:nonzero;fill:rgb(26.669312%,65.098572%,44.309998%);fill-opacity:1;" d="M 37.5 0 C 36.273438 0 35.046875 0.0585938 33.824219 0.179688 C 32.601562 0.300781 31.390625 0.480469 30.183594 0.71875 C 28.980469 0.960938 27.789062 1.257812 26.613281 1.613281 C 25.4375 1.972656 24.285156 2.382812 23.148438 2.855469 C 22.015625 3.324219 20.90625 3.847656 19.824219 4.429688 C 18.738281 5.007812 17.6875 5.636719 16.667969 6.320312 C 15.644531 7.003906 14.660156 7.734375 13.710938 8.511719 C 12.761719 9.292969 11.851562 10.113281 10.984375 10.984375 C 10.113281 11.851562 9.292969 12.761719 8.511719 13.710938 C 7.734375 14.660156 7.003906 15.644531 6.320312 16.667969 C 5.636719 17.6875 5.007812 18.738281 4.429688 19.824219 C 3.847656 20.90625 3.324219 22.015625 2.855469 23.148438 C 2.382812 24.285156 1.972656 25.4375 1.613281 26.613281 C 1.257812 27.789062 0.960938 28.980469 0.71875 30.183594 C 0.480469 31.390625 0.300781 32.601562 0.179688 33.824219 C 0.0585938 35.046875 0 36.273438 0 37.5 C 0 38.726562 0.0585938 39.953125 0.179688 41.175781 C 0.300781 42.398438 0.480469 43.609375 0.71875 44.816406 C 0.960938 46.019531 1.257812 47.210938 1.613281 48.386719 C 1.972656 49.5625 2.382812 50.714844 2.855469 51.851562 C 3.324219 52.984375 3.847656 54.09375 4.429688 55.175781 C 5.007812 56.261719 5.636719 57.3125 6.320312 58.332031 C 7.003906 59.355469 7.734375 60.339844 8.511719 61.289062 C 9.292969 62.238281 10.113281 63.148438 10.984375 64.015625 C 11.851562 64.886719 12.761719 65.707031 13.710938 66.488281 C 14.660156 67.265625 15.644531 67.996094 16.667969 68.679688 C 17.6875 69.363281 18.738281 69.992188 19.824219 70.570312 C 20.90625 71.152344 22.015625 71.675781 23.148438 72.144531 C 24.285156 72.617188 25.4375 73.027344 26.613281 73.386719 C 27.789062 73.742188 28.980469 74.039062 30.183594 74.28125 C 31.390625 74.519531 32.601562 74.699219 33.824219 74.820312 C 35.046875 74.941406 36.273438 75 37.5 75 C 38.726562 75 39.953125 74.941406 41.175781 74.820312 C 42.398438 74.699219 43.609375 74.519531 44.816406 74.28125 C 46.019531 74.039062 47.210938 73.742188 48.386719 73.386719 C 49.5625 73.027344 50.714844 72.617188 51.851562 72.144531 C 52.984375 71.675781 54.09375 71.152344 55.175781 70.570312 C 56.261719 69.992188 57.3125 69.363281 58.332031 68.679688 C 59.355469 67.996094 60.339844 67.265625 61.289062 66.488281 C 62.238281 65.707031 63.148438 64.886719 64.015625 64.015625 C 64.886719 63.148438 65.707031 62.238281 66.488281 61.289062 C 67.265625 60.339844 67.996094 59.355469 68.679688 58.332031 C 69.363281 57.3125 69.992188 56.261719 70.570312 55.175781 C 71.152344 54.09375 71.675781 52.984375 72.144531 51.851562 C 72.617188 50.714844 73.027344 49.5625 73.386719 48.386719 C 73.742188 47.210938 74.039062 46.019531 74.28125 44.816406 C 74.519531 43.609375 74.699219 42.398438 74.820312 41.175781 C 74.941406 39.953125 75 38.726562 75 37.5 C 75 36.273438 74.941406 35.046875 74.820312 33.824219 C 74.699219 32.601562 74.519531 31.390625 74.28125 30.183594 C 74.039062 28.980469 73.742188 27.789062 73.386719 26.613281 C 73.027344 25.4375 72.617188 24.285156 72.144531 23.148438 C 71.675781 22.015625 71.152344 20.90625 70.570312 19.824219 C 69.992188 18.738281 69.363281 17.6875 68.679688 16.667969 C 67.996094 15.644531 67.265625 14.660156 66.488281 13.710938 C 65.707031 12.761719 64.886719 11.851562 64.015625 10.984375 C 63.148438 10.113281 62.238281 9.292969 61.289062 8.511719 C 60.339844 7.734375 59.355469 7.003906 58.332031 6.320312 C 57.3125 5.636719 56.261719 5.007812 55.175781 4.429688 C 54.09375 3.847656 52.984375 3.324219 51.851562 2.855469 C 50.714844 2.382812 49.5625 1.972656 48.386719 1.613281 C 47.210938 1.257812 46.019531 0.960938 44.816406 0.71875 C 43.609375 0.480469 42.398438 0.300781 41.175781 0.179688 C 39.953125 0.0585938 38.726562 0 37.5 0 Z M 37.5 0 "/>
<path style=" stroke:none;fill-rule:nonzero;fill:rgb(100%,100%,100%);fill-opacity:1;" d="M 51.339844 45.320312 C 51.121094 45.320312 50.914062 45.285156 50.722656 45.203125 C 50.046875 44.925781 49.734375 44.199219 49.882812 43.265625 C 50.273438 40.769531 51.097656 35.355469 51.105469 35.300781 C 51.136719 35.101562 51.324219 34.964844 51.523438 34.996094 C 51.722656 35.023438 51.859375 35.207031 51.832031 35.40625 C 51.824219 35.460938 51 40.878906 50.605469 43.375 C 50.550781 43.726562 50.527344 44.34375 51.007812 44.539062 C 51.546875 44.761719 52.539062 44.398438 53.394531 43.273438 C 53.515625 43.113281 53.746094 43.078125 53.910156 43.199219 C 54.070312 43.316406 54.105469 43.542969 53.984375 43.703125 C 53.207031 44.722656 52.195312 45.320312 51.339844 45.320312 "/>
<path style=" stroke:none;fill-rule:nonzero;fill:rgb(100%,100%,100%);fill-opacity:1;" d="M 46.816406 45.304688 C 46.539062 45.304688 46.304688 45.269531 46.144531 45.21875 C 43.789062 44.46875 44.335938 40.863281 44.628906 38.925781 L 45.21875 35.125 C 45.246094 34.929688 45.433594 34.792969 45.636719 34.824219 C 45.835938 34.855469 45.972656 35.039062 45.941406 35.234375 L 45.355469 39.035156 C 45.09375 40.757812 44.605469 43.972656 46.367188 44.535156 C 46.644531 44.621094 47.484375 44.652344 48.320312 44.183594 C 49.246094 43.664062 49.871094 42.714844 50.179688 41.367188 C 50.222656 41.171875 50.417969 41.050781 50.617188 41.09375 C 50.8125 41.136719 50.9375 41.328125 50.894531 41.523438 C 50.453125 43.460938 49.445312 44.378906 48.679688 44.808594 C 48.019531 45.183594 47.339844 45.304688 46.816406 45.304688 "/>
<path style=" stroke:none;fill-rule:nonzero;fill:rgb(100%,100%,100%);fill-opacity:1;" d="M 53.6875 43.847656 C 53.609375 43.847656 53.527344 43.820312 53.460938 43.769531 C 53.300781 43.640625 53.277344 43.414062 53.40625 43.261719 C 55.441406 40.777344 56.527344 35.144531 56.398438 34.59375 C 56.332031 34.402344 56.4375 34.203125 56.628906 34.140625 C 56.824219 34.078125 57.03125 34.183594 57.09375 34.371094 C 57.367188 35.179688 56.105469 41.121094 53.976562 43.714844 C 53.902344 43.800781 53.796875 43.847656 53.6875 43.847656 "/>
<g clip-path="url(#clip1)" clip-rule="nonzero">
<path style=" stroke:none;fill-rule:nonzero;fill:rgb(100%,100%,100%);fill-opacity:1;" d="M 56.0625 33.917969 C 56.03125 33.964844 56.035156 33.984375 56.035156 33.992188 C 56.046875 34.082031 56.179688 34.214844 56.34375 34.347656 C 56.273438 34.148438 56.148438 33.976562 56.0625 33.917969 Z M 60.679688 45.296875 C 60.375 45.296875 60.09375 45.222656 59.855469 45.074219 C 59.355469 44.765625 59.085938 44.179688 59.042969 43.335938 C 58.933594 41.121094 59.050781 39.636719 59.257812 36.945312 L 59.3125 36.207031 C 59.234375 36.109375 58.886719 36.066406 58.550781 36.023438 C 57.945312 35.949219 57.113281 35.847656 56.386719 35.300781 L 56.25 35.195312 C 55.820312 34.875 55.371094 34.542969 55.308594 34.089844 C 55.289062 33.9375 55.304688 33.707031 55.492188 33.460938 C 55.675781 33.222656 55.945312 33.128906 56.21875 33.199219 C 56.699219 33.328125 57.046875 33.933594 57.109375 34.441406 C 57.128906 34.589844 57.054688 34.726562 56.933594 34.796875 C 57.476562 35.164062 58.09375 35.242188 58.644531 35.308594 C 59.257812 35.386719 59.894531 35.464844 60.039062 36.070312 C 60.050781 36.105469 60.050781 36.144531 60.050781 36.183594 L 59.988281 37 C 59.78125 39.664062 59.667969 41.132812 59.773438 43.300781 C 59.792969 43.710938 59.894531 44.246094 60.246094 44.464844 C 60.601562 44.683594 61.105469 44.515625 61.304688 44.433594 C 61.328125 44.425781 62.917969 43.746094 63.824219 40.589844 C 63.878906 40.398438 64.078125 40.289062 64.273438 40.339844 C 64.46875 40.394531 64.582031 40.59375 64.527344 40.785156 C 63.515625 44.324219 61.660156 45.070312 61.582031 45.101562 C 61.269531 45.230469 60.960938 45.296875 60.679688 45.296875 "/>
</g>
<path style=" stroke:none;fill-rule:nonzero;fill:rgb(100%,100%,100%);fill-opacity:1;" d="M 39.761719 37.546875 C 39.363281 37.546875 39.128906 37.730469 39.066406 38.09375 C 38.980469 38.574219 39.253906 39.234375 39.746094 39.394531 C 40.011719 39.484375 40.261719 39.539062 40.5 39.566406 C 40.546875 39.113281 40.546875 38.683594 40.488281 38.339844 C 40.480469 38.320312 40.476562 38.300781 40.476562 38.28125 C 40.433594 38.070312 40.363281 37.894531 40.269531 37.769531 C 40.152344 37.621094 39.996094 37.550781 39.78125 37.546875 Z M 37.953125 35.613281 C 36.949219 35.613281 35.839844 36.0625 35.15625 37.007812 C 34.160156 38.382812 33.351562 41.695312 34.273438 43.449219 C 34.679688 44.21875 35.355469 44.589844 36.339844 44.589844 L 36.34375 44.589844 C 38.097656 44.589844 39.8125 42.644531 40.253906 40.898438 C 40.308594 40.699219 40.355469 40.488281 40.394531 40.277344 C 40.117188 40.246094 39.824219 40.183594 39.511719 40.078125 C 38.644531 39.792969 38.207031 38.757812 38.34375 37.972656 C 38.46875 37.253906 39.023438 36.8125 39.792969 36.824219 C 39.925781 36.828125 40.054688 36.84375 40.175781 36.878906 C 40.003906 36.554688 39.769531 36.253906 39.472656 36.042969 C 39.066406 35.761719 38.527344 35.613281 37.953125 35.613281 Z M 36.339844 45.3125 C 35.089844 45.3125 34.148438 44.78125 33.625 43.78125 C 32.546875 41.726562 33.472656 38.09375 34.558594 36.589844 C 35.78125 34.898438 38.324219 34.359375 39.894531 35.457031 C 40.804688 36.089844 41.300781 37.390625 41.210938 38.238281 C 41.28125 38.648438 41.277344 39.101562 41.238281 39.53125 C 42.167969 39.324219 42.90625 38.472656 43.632812 36.851562 C 44.847656 34.15625 45.273438 34.027344 45.636719 34.128906 C 46.101562 34.261719 46.003906 34.902344 45.972656 35.113281 C 45.941406 35.3125 45.753906 35.449219 45.554688 35.417969 C 45.4375 35.398438 45.339844 35.328125 45.285156 35.230469 C 45.078125 35.554688 44.757812 36.132812 44.304688 37.144531 C 43.667969 38.558594 42.753906 40.0625 41.140625 40.273438 C 41.078125 40.617188 41.011719 40.902344 40.964844 41.078125 C 40.445312 43.121094 38.464844 45.3125 36.34375 45.3125 L 36.339844 45.3125 "/>
<g clip-path="url(#clip2)" clip-rule="nonzero">
<path style=" stroke:none;fill-rule:nonzero;fill:rgb(100%,100%,100%);fill-opacity:1;" d="M 14.132812 45.296875 C 13.644531 45.296875 13.1875 45.207031 12.792969 45.054688 C 11.449219 44.546875 10.664062 43.382812 10.882812 42.222656 C 10.917969 42.027344 11.109375 41.898438 11.308594 41.933594 C 11.507812 41.96875 11.640625 42.15625 11.601562 42.351562 C 11.449219 43.167969 12.046875 44 13.054688 44.382812 C 14.265625 44.839844 16.003906 44.613281 17.261719 42.601562 C 19.601562 38.855469 20.277344 35.644531 21.1875 30.71875 L 21.257812 30.335938 C 22.375 24.289062 22.675781 22.664062 25.222656 22.058594 C 25.421875 22.011719 25.617188 22.132812 25.664062 22.324219 C 25.714844 22.519531 25.59375 22.714844 25.394531 22.761719 C 23.375 23.242188 23.101562 24.398438 21.980469 30.464844 L 21.910156 30.851562 C 20.984375 35.855469 20.292969 39.121094 17.882812 42.980469 C 16.808594 44.699219 15.378906 45.296875 14.132812 45.296875 "/>
</g>
<g clip-path="url(#clip3)" clip-rule="nonzero">
<path style=" stroke:none;fill-rule:nonzero;fill:rgb(100%,100%,100%);fill-opacity:1;" d="M 31.199219 52.695312 L 31.167969 52.695312 C 31.121094 52.691406 30.078125 52.589844 29.316406 51.535156 C 28.417969 50.285156 28.3125 48.289062 29.011719 45.601562 C 30.300781 40.644531 31.480469 35.359375 32.339844 30.71875 C 33.359375 25.191406 34.125 22.976562 35.269531 22.253906 C 35.652344 22.007812 36.085938 21.945312 36.550781 22.058594 C 36.746094 22.109375 36.863281 22.304688 36.816406 22.496094 C 36.765625 22.691406 36.566406 22.808594 36.371094 22.757812 C 36.101562 22.691406 35.878906 22.722656 35.664062 22.859375 C 34.542969 23.570312 33.75 27.121094 33.058594 30.851562 C 32.199219 35.503906 31.015625 40.804688 29.722656 45.777344 C 28.925781 48.84375 29.382812 50.367188 29.902344 51.101562 C 30.460938 51.890625 31.203125 51.972656 31.234375 51.976562 C 31.433594 52 31.582031 52.175781 31.5625 52.371094 C 31.542969 52.558594 31.386719 52.695312 31.199219 52.695312 "/>
</g>
<path style=" stroke:none;fill-rule:nonzero;fill:rgb(100%,100%,100%);fill-opacity:1;" d="M 16.035156 40.855469 C 13.128906 40.855469 11.582031 39.070312 11.328125 37.171875 C 11.019531 34.835938 12.570312 32.183594 16.128906 31.636719 C 18.933594 31.203125 21.039062 31.707031 23.074219 32.191406 C 25.765625 32.835938 28.308594 33.441406 32.300781 31.808594 C 35.800781 30.375 37.375 26.445312 37.171875 24.15625 C 37.136719 23.78125 36.992188 22.894531 36.378906 22.761719 C 36.183594 22.71875 36.058594 22.527344 36.101562 22.332031 C 36.144531 22.136719 36.339844 22.015625 36.539062 22.058594 C 37.300781 22.222656 37.796875 22.964844 37.898438 24.089844 C 38.125 26.601562 36.40625 30.910156 32.582031 32.472656 C 28.371094 34.199219 25.589844 33.535156 22.898438 32.890625 C 20.933594 32.421875 18.902344 31.9375 16.246094 32.347656 C 13.144531 32.824219 11.792969 35.089844 12.054688 37.078125 C 12.265625 38.671875 13.625 40.417969 16.753906 40.09375 C 16.957031 40.074219 17.136719 40.21875 17.15625 40.417969 C 17.175781 40.613281 17.03125 40.792969 16.832031 40.8125 C 16.554688 40.839844 16.289062 40.855469 16.035156 40.855469 "/>
<path style=" stroke:none;fill-rule:nonzero;fill:rgb(100%,100%,100%);fill-opacity:1;" d="M 50.898438 27.925781 L 50.445312 27.925781 L 50.445312 26.109375 L 50.898438 26.109375 C 51.242188 26.109375 51.523438 26.375 51.535156 26.710938 L 51.539062 27.292969 L 51.539062 27.3125 C 51.527344 27.652344 51.246094 27.925781 50.898438 27.925781 Z M 51.296875 25.007812 L 49 25.007812 L 49 30.648438 L 50.277344 30.648438 L 50.277344 29.023438 L 51.296875 29.023438 C 52.261719 29.023438 53.046875 28.257812 53.054688 27.308594 L 53.054688 26.71875 C 53.042969 25.773438 52.261719 25.007812 51.296875 25.007812 "/>
<path style=" stroke:none;fill-rule:nonzero;fill:rgb(100%,100%,100%);fill-opacity:1;" d="M 55.425781 27.886719 L 54.972656 27.886719 L 54.972656 26.070312 L 55.425781 26.070312 C 55.769531 26.070312 56.050781 26.335938 56.066406 26.671875 L 56.066406 27.273438 C 56.054688 27.613281 55.773438 27.886719 55.425781 27.886719 Z M 55.824219 24.96875 L 53.527344 24.96875 L 53.527344 30.609375 L 54.808594 30.609375 L 54.808594 28.988281 L 55.824219 28.988281 C 56.792969 28.988281 57.574219 28.21875 57.582031 27.273438 L 57.582031 26.679688 C 57.574219 25.734375 56.789062 24.96875 55.824219 24.96875 "/>
<path style=" stroke:none;fill-rule:nonzero;fill:rgb(100%,100%,100%);fill-opacity:1;" d="M 60 26.675781 L 59.160156 25.007812 L 57.726562 25.007812 L 59.359375 28.09375 L 59.359375 30.648438 L 60.640625 30.648438 L 60.640625 28.097656 L 62.273438 25.007812 L 60.839844 25.007812 L 60 26.675781 "/>
<path style=" stroke:none;fill-rule:nonzero;fill:rgb(100%,100%,100%);fill-opacity:1;" d="M 41.777344 25.007812 L 41.777344 27.183594 L 40.851562 27.183594 L 40.851562 25.007812 L 39.570312 25.007812 L 39.570312 30.648438 L 40.851562 30.648438 L 40.851562 28.445312 L 41.777344 28.445312 L 41.777344 30.648438 L 43.054688 30.648438 L 43.054688 25.007812 L 41.777344 25.007812 "/>
<path style=" stroke:none;fill-rule:nonzero;fill:rgb(100%,100%,100%);fill-opacity:1;" d="M 45.757812 28.605469 L 46.113281 26.976562 L 46.464844 28.605469 Z M 46.945312 30.648438 L 48.226562 30.648438 L 46.753906 25.007812 L 45.472656 25.007812 L 44 30.648438 L 45.28125 30.648438 L 45.578125 29.53125 L 46.652344 29.53125 L 46.945312 30.648438 "/>
<g clip-path="url(#clip4)" clip-rule="nonzero">
<path style=" stroke:none;fill-rule:nonzero;fill:rgb(100%,100%,100%);fill-opacity:1;" d="M 37.386719 69.636719 C 19.605469 69.636719 5.136719 55.171875 5.136719 37.386719 C 5.136719 19.605469 19.605469 5.136719 37.386719 5.136719 C 55.171875 5.136719 69.636719 19.605469 69.636719 37.386719 C 69.636719 55.171875 55.171875 69.636719 37.386719 69.636719 Z M 37.386719 5.710938 C 19.921875 5.710938 5.710938 19.921875 5.710938 37.386719 C 5.710938 54.855469 19.921875 69.066406 37.386719 69.066406 C 54.855469 69.066406 69.066406 54.855469 69.066406 37.386719 C 69.066406 19.921875 54.855469 5.710938 37.386719 5.710938 Z M 37.386719 5.710938 "/>
</g>
</g>
</svg>
