<?xml version="1.0" encoding="UTF-8"?>
<svg xmlns="http://www.w3.org/2000/svg" xmlns:xlink="http://www.w3.org/1999/xlink" width="75pt" height="74.999997pt" viewBox="0 0 75 74.999997" version="1.2">
<defs>
<clipPath id="clip1">
  <path d="M 5.210938 5.210938 L 69.710938 5.210938 L 69.710938 69.710938 L 5.210938 69.710938 Z M 5.210938 5.210938 "/>
</clipPath>
</defs>
<g id="surface1">
<g clip-path="url(#clip1)" clip-rule="nonzero">
<path style=" stroke:none;fill-rule:nonzero;fill:rgb(95.689392%,37.649536%,21.179199%);fill-opacity:1;" d="M 43.039062 27.207031 C 43.039062 30.195312 40.601562 30.429688 39.15625 30.429688 L 38.804688 30.429688 L 40.117188 59.925781 C 40.117188 59.925781 40.332031 62.472656 37.367188 62.472656 C 34.371094 62.472656 34.613281 59.925781 34.613281 59.925781 L 35.925781 30.429688 L 35.230469 30.429688 C 33.945312 30.429688 31.6875 29.972656 31.6875 27.207031 C 31.6875 27.207031 31.6875 21.117188 31.6875 20.230469 C 31.6875 15.828125 32.042969 12.257812 32.484375 12.257812 C 32.921875 12.257812 33.277344 17.242188 33.277344 21.644531 C 33.277344 22.535156 33.261719 24.511719 33.238281 25.308594 L 34.984375 25.308594 C 34.957031 24.511719 34.941406 22.535156 34.941406 21.644531 C 34.941406 17.242188 35.300781 12.257812 35.738281 12.257812 C 36.175781 12.257812 36.53125 17.242188 36.53125 21.644531 C 36.53125 22.535156 36.519531 24.511719 36.492188 25.308594 L 38.238281 25.308594 C 38.210938 24.511719 38.195312 22.535156 38.195312 21.644531 C 38.195312 17.242188 38.550781 12.257812 38.992188 12.257812 C 39.429688 12.257812 39.785156 17.242188 39.785156 21.644531 C 39.785156 22.535156 39.773438 24.511719 39.742188 25.308594 L 41.492188 25.308594 C 41.464844 24.511719 41.453125 22.535156 41.453125 21.644531 C 41.453125 17.242188 41.808594 12.257812 42.246094 12.257812 C 42.683594 12.257812 43.039062 15.828125 43.039062 20.230469 C 43.039062 21.117188 43.039062 27.207031 43.039062 27.207031 Z M 37.460938 5.210938 C 19.652344 5.210938 5.210938 19.652344 5.210938 37.460938 C 5.210938 55.273438 19.652344 69.710938 37.460938 69.710938 C 55.273438 69.710938 69.710938 55.273438 69.710938 37.460938 C 69.710938 19.652344 55.273438 5.210938 37.460938 5.210938 "/>
</g>
</g>
</svg>
