<?xml version="1.0" encoding="UTF-8"?>
<svg xmlns="http://www.w3.org/2000/svg" xmlns:xlink="http://www.w3.org/1999/xlink" width="37.5pt" height="37.499999pt" viewBox="0 0 37.5 37.499999" version="1.2">
<defs>
<clipPath id="clip1">
  <path d="M 2.1875 2.1875 L 35.070312 2.1875 L 35.070312 35.070312 L 2.1875 35.070312 Z M 2.1875 2.1875 "/>
</clipPath>
</defs>
<g id="surface1">
<path style=" stroke:none;fill-rule:nonzero;fill:rgb(26.269531%,46.669006%,76.469421%);fill-opacity:1;" d="M 18.265625 21.636719 C 18.265625 22.304688 17.828125 22.851562 17.289062 22.851562 L 8.253906 22.851562 C 7.71875 22.851562 7.273438 22.304688 7.273438 21.636719 L 7.273438 16.878906 C 7.273438 16.210938 7.71875 15.664062 8.253906 15.664062 L 17.289062 15.664062 C 17.828125 15.664062 18.265625 16.210938 18.265625 16.878906 Z M 17.839844 15.011719 L 7.703125 15.011719 C 7.097656 15.011719 6.605469 15.65625 6.605469 16.449219 L 6.605469 22.066406 C 6.605469 22.855469 7.097656 23.503906 7.703125 23.503906 L 17.839844 23.503906 C 18.441406 23.503906 18.9375 22.855469 18.9375 22.066406 L 18.9375 16.449219 C 18.9375 15.65625 18.441406 15.011719 17.839844 15.011719 "/>
<path style=" stroke:none;fill-rule:nonzero;fill:rgb(26.269531%,46.669006%,76.469421%);fill-opacity:1;" d="M 26.78125 20.441406 C 26.957031 20.289062 26.980469 20.019531 26.832031 19.835938 C 26.679688 19.65625 26.417969 19.636719 26.238281 19.789062 C 26.0625 19.945312 26.042969 20.214844 26.191406 20.394531 C 26.339844 20.570312 26.605469 20.59375 26.78125 20.441406 "/>
<path style=" stroke:none;fill-rule:nonzero;fill:rgb(26.269531%,46.669006%,76.469421%);fill-opacity:1;" d="M 14.335938 20.730469 C 14.207031 20.992188 14.066406 21.128906 13.925781 21.128906 C 13.878906 21.128906 13.867188 21.113281 13.859375 21.101562 C 13.847656 21.085938 13.820312 21.03125 13.820312 20.902344 C 13.820312 20.703125 13.875 20.453125 13.984375 20.160156 C 14.09375 19.875 14.214844 19.710938 14.324219 19.710938 C 14.382812 19.710938 14.515625 19.710938 14.515625 20.105469 C 14.515625 20.28125 14.453125 20.496094 14.335938 20.730469 Z M 15 19.519531 C 14.898438 19.316406 14.679688 19.074219 14.199219 19.074219 C 13.839844 19.074219 13.527344 19.257812 13.269531 19.621094 C 13.046875 19.9375 12.933594 20.273438 12.933594 20.625 C 12.933594 20.929688 13.019531 21.183594 13.191406 21.382812 C 13.367188 21.589844 13.613281 21.695312 13.921875 21.703125 C 13.933594 21.703125 13.941406 21.703125 13.953125 21.703125 C 14.136719 21.703125 14.304688 21.65625 14.453125 21.566406 C 14.605469 21.472656 14.738281 21.332031 14.84375 21.140625 C 15.015625 20.847656 15.101562 20.507812 15.101562 20.125 C 15.101562 19.859375 15.070312 19.664062 15 19.519531 "/>
<path style=" stroke:none;fill-rule:nonzero;fill:rgb(26.269531%,46.669006%,76.469421%);fill-opacity:1;" d="M 11.847656 18.390625 C 11.695312 18.648438 11.539062 18.78125 11.375 18.78125 C 11.316406 18.78125 11.304688 18.765625 11.296875 18.753906 C 11.285156 18.738281 11.253906 18.6875 11.253906 18.558594 C 11.253906 18.367188 11.316406 18.121094 11.445312 17.828125 C 11.511719 17.667969 11.65625 17.394531 11.835938 17.394531 C 11.878906 17.394531 11.929688 17.402344 11.984375 17.492188 C 12.027344 17.570312 12.050781 17.664062 12.050781 17.773438 C 12.050781 17.949219 11.984375 18.15625 11.847656 18.390625 Z M 13.949219 16.628906 L 13.894531 16.703125 C 13.796875 16.839844 13.664062 16.949219 13.503906 17.039062 C 13.339844 17.125 13.179688 17.171875 13.023438 17.171875 C 12.710938 17.171875 12.484375 17.117188 12.339844 17.007812 C 12.242188 16.933594 12.195312 16.890625 12.175781 16.867188 L 12.164062 16.855469 L 12.148438 16.84375 C 12.0625 16.789062 11.949219 16.757812 11.816406 16.757812 C 11.429688 16.757812 11.097656 16.925781 10.832031 17.25 C 10.570312 17.566406 10.441406 17.917969 10.441406 18.296875 C 10.441406 18.597656 10.535156 18.855469 10.722656 19.0625 C 10.910156 19.269531 11.160156 19.375 11.464844 19.375 C 11.65625 19.375 11.832031 19.324219 11.984375 19.226562 C 12.128906 19.132812 12.257812 18.988281 12.359375 18.804688 C 12.527344 18.511719 12.609375 18.171875 12.609375 17.796875 C 12.609375 17.777344 12.609375 17.761719 12.609375 17.746094 C 12.6875 17.757812 12.773438 17.765625 12.867188 17.765625 C 12.992188 17.765625 13.117188 17.753906 13.238281 17.730469 L 10.960938 21.886719 L 11.75 21.886719 L 14.636719 16.628906 L 13.949219 16.628906 "/>
<path style=" stroke:none;fill-rule:nonzero;fill:rgb(26.269531%,46.669006%,76.469421%);fill-opacity:1;" d="M 30.4375 20.234375 C 29.910156 20.011719 29.421875 20.15625 29.316406 20.417969 C 29.203125 20.691406 29.46875 21.136719 29.984375 21.351562 C 30.511719 21.570312 31 21.433594 31.105469 21.164062 C 31.214844 20.894531 30.949219 20.449219 30.4375 20.234375 "/>
<g clip-path="url(#clip1)" clip-rule="nonzero">
<path style=" stroke:none;fill-rule:nonzero;fill:rgb(26.269531%,46.669006%,76.469421%);fill-opacity:1;" d="M 29.605469 22.292969 C 29.601562 22.292969 29.601562 22.292969 29.601562 22.289062 L 27.640625 21.472656 L 28.113281 23.578125 C 28.113281 23.578125 28.117188 23.582031 28.117188 23.582031 C 28.363281 24.675781 27.875 25.695312 27.007812 25.902344 C 26.144531 26.105469 25.265625 25.398438 25.019531 24.316406 C 24.777344 23.222656 25.261719 22.207031 26.128906 22 C 26.164062 21.992188 26.199219 21.984375 26.234375 21.980469 L 25.960938 20.773438 L 21.808594 19.039062 C 20.992188 18.699219 20.398438 17.96875 20.226562 17.085938 C 20.210938 17.011719 20.234375 16.9375 20.292969 16.890625 C 20.351562 16.839844 20.429688 16.828125 20.496094 16.855469 L 25.554688 18.96875 L 24.332031 13.535156 C 24.3125 13.460938 24.339844 13.382812 24.394531 13.332031 C 24.449219 13.28125 24.527344 13.269531 24.597656 13.296875 C 25.421875 13.613281 26.03125 14.332031 26.226562 15.203125 L 27.234375 19.667969 L 28.359375 20.136719 C 28.367188 20.101562 28.378906 20.070312 28.394531 20.035156 C 28.734375 19.195312 29.796875 18.871094 30.816406 19.292969 C 31.820312 19.714844 32.363281 20.714844 32.027344 21.550781 C 31.6875 22.390625 30.621094 22.71875 29.605469 22.292969 Z M 20.125 13.242188 L 19.265625 12.210938 C 19.085938 11.996094 19.113281 11.671875 19.324219 11.484375 C 19.539062 11.300781 19.855469 11.328125 20.039062 11.542969 L 20.894531 12.574219 C 20.984375 12.683594 21.023438 12.816406 21.011719 12.949219 C 21 13.078125 20.941406 13.207031 20.835938 13.300781 C 20.621094 13.484375 20.304688 13.460938 20.125 13.242188 Z M 19.710938 22.9375 C 19.710938 23.726562 19.214844 24.371094 18.613281 24.371094 L 6.929688 24.371094 C 6.324219 24.371094 5.828125 23.726562 5.828125 22.9375 L 5.828125 15.578125 C 5.828125 14.789062 6.324219 14.144531 6.929688 14.144531 L 18.613281 14.144531 C 19.214844 14.144531 19.710938 14.789062 19.710938 15.578125 Z M 21.152344 13.683594 C 21.367188 13.496094 21.6875 13.523438 21.863281 13.738281 L 22.726562 14.769531 C 22.8125 14.878906 22.851562 15.015625 22.839844 15.144531 C 22.832031 15.277344 22.773438 15.40625 22.664062 15.496094 C 22.453125 15.679688 22.132812 15.65625 21.953125 15.4375 L 21.09375 14.410156 C 20.914062 14.191406 20.941406 13.867188 21.152344 13.683594 Z M 22.984375 15.878906 C 23.195312 15.695312 23.515625 15.722656 23.695312 15.9375 L 24.554688 16.96875 C 24.644531 17.074219 24.679688 17.210938 24.671875 17.34375 C 24.660156 17.472656 24.601562 17.601562 24.496094 17.691406 C 24.28125 17.878906 23.964844 17.851562 23.78125 17.636719 L 22.925781 16.605469 C 22.746094 16.386719 22.773438 16.0625 22.984375 15.878906 Z M 18.648438 2.203125 C 9.566406 2.203125 2.203125 9.566406 2.203125 18.648438 C 2.203125 27.730469 9.566406 35.097656 18.648438 35.097656 C 27.730469 35.097656 35.097656 27.730469 35.097656 18.648438 C 35.097656 9.566406 27.730469 2.203125 18.648438 2.203125 "/>
</g>
<path style=" stroke:none;fill-rule:nonzero;fill:rgb(26.269531%,46.669006%,76.469421%);fill-opacity:1;" d="M 26.351562 22.988281 C 26.082031 23.054688 25.863281 23.519531 25.992188 24.085938 C 26.117188 24.640625 26.503906 24.980469 26.785156 24.914062 C 27.058594 24.847656 27.273438 24.378906 27.148438 23.8125 C 27.023438 23.261719 26.632812 22.921875 26.351562 22.988281 "/>
</g>
</svg>
