<?xml version="1.0" encoding="UTF-8"?>
<svg xmlns="http://www.w3.org/2000/svg" xmlns:xlink="http://www.w3.org/1999/xlink" width="75pt" height="74.999997pt" viewBox="0 0 75 74.999997" version="1.2">
<defs>
<clipPath id="clip1">
  <path d="M 28 32 L 46 32 L 46 52.5 L 28 52.5 Z M 28 32 "/>
</clipPath>
<clipPath id="clip2">
  <path d="M 26.671875 22.5 L 48 22.5 L 48 42 L 26.671875 42 Z M 26.671875 22.5 "/>
</clipPath>
<clipPath id="clip3">
  <path d="M 45 33 L 51.421875 33 L 51.421875 47 L 45 47 Z M 45 33 "/>
</clipPath>
</defs>
<g id="surface1">
<path style=" stroke:none;fill-rule:nonzero;fill:rgb(32.159424%,44.309998%,100%);fill-opacity:1;" d="M 37.5 16.875 C 36.824219 16.875 36.152344 16.90625 35.476562 16.972656 C 34.804688 17.039062 34.140625 17.140625 33.476562 17.269531 C 32.8125 17.402344 32.160156 17.566406 31.511719 17.761719 C 30.867188 17.960938 30.230469 18.1875 29.605469 18.445312 C 28.984375 18.703125 28.375 18.992188 27.777344 19.308594 C 27.183594 19.628906 26.601562 19.976562 26.042969 20.351562 C 25.480469 20.726562 24.9375 21.128906 24.414062 21.558594 C 23.894531 21.984375 23.394531 22.4375 22.914062 22.914062 C 22.4375 23.394531 21.984375 23.894531 21.558594 24.414062 C 21.128906 24.9375 20.726562 25.480469 20.351562 26.042969 C 19.976562 26.601562 19.628906 27.183594 19.308594 27.777344 C 18.992188 28.375 18.703125 28.984375 18.445312 29.605469 C 18.1875 30.230469 17.960938 30.867188 17.761719 31.511719 C 17.566406 32.160156 17.402344 32.8125 17.269531 33.476562 C 17.140625 34.140625 17.039062 34.804688 16.972656 35.476562 C 16.90625 36.152344 16.875 36.824219 16.875 37.5 C 16.875 38.175781 16.90625 38.847656 16.972656 39.523438 C 17.039062 40.195312 17.140625 40.859375 17.269531 41.523438 C 17.402344 42.1875 17.566406 42.839844 17.761719 43.488281 C 17.960938 44.132812 18.1875 44.769531 18.445312 45.394531 C 18.703125 46.015625 18.992188 46.625 19.308594 47.222656 C 19.628906 47.816406 19.976562 48.398438 20.351562 48.957031 C 20.726562 49.519531 21.128906 50.0625 21.558594 50.585938 C 21.984375 51.105469 22.4375 51.605469 22.914062 52.085938 C 23.394531 52.5625 23.894531 53.015625 24.414062 53.441406 C 24.9375 53.871094 25.480469 54.273438 26.042969 54.648438 C 26.601562 55.023438 27.183594 55.371094 27.777344 55.691406 C 28.375 56.007812 28.984375 56.296875 29.605469 56.554688 C 30.230469 56.8125 30.867188 57.039062 31.511719 57.238281 C 32.160156 57.433594 32.8125 57.597656 33.476562 57.730469 C 34.140625 57.859375 34.804688 57.960938 35.476562 58.027344 C 36.152344 58.09375 36.824219 58.125 37.5 58.125 C 38.175781 58.125 38.847656 58.09375 39.523438 58.027344 C 40.195312 57.960938 40.859375 57.859375 41.523438 57.730469 C 42.1875 57.597656 42.839844 57.433594 43.488281 57.238281 C 44.132812 57.039062 44.769531 56.8125 45.394531 56.554688 C 46.015625 56.296875 46.625 56.007812 47.222656 55.691406 C 47.816406 55.371094 48.398438 55.023438 48.957031 54.648438 C 49.519531 54.273438 50.0625 53.871094 50.585938 53.441406 C 51.105469 53.015625 51.605469 52.5625 52.085938 52.085938 C 52.5625 51.605469 53.015625 51.105469 53.441406 50.585938 C 53.871094 50.0625 54.273438 49.519531 54.648438 48.957031 C 55.023438 48.398438 55.371094 47.816406 55.691406 47.222656 C 56.007812 46.625 56.296875 46.015625 56.554688 45.394531 C 56.8125 44.769531 57.039062 44.132812 57.238281 43.488281 C 57.433594 42.839844 57.597656 42.1875 57.730469 41.523438 C 57.859375 40.859375 57.960938 40.195312 58.027344 39.523438 C 58.09375 38.847656 58.125 38.175781 58.125 37.5 C 58.125 36.824219 58.09375 36.152344 58.027344 35.476562 C 57.960938 34.804688 57.859375 34.140625 57.730469 33.476562 C 57.597656 32.8125 57.433594 32.160156 57.238281 31.511719 C 57.039062 30.867188 56.8125 30.230469 56.554688 29.605469 C 56.296875 28.984375 56.007812 28.375 55.691406 27.777344 C 55.371094 27.183594 55.023438 26.601562 54.648438 26.042969 C 54.273438 25.480469 53.871094 24.9375 53.441406 24.414062 C 53.015625 23.894531 52.5625 23.394531 52.085938 22.914062 C 51.605469 22.4375 51.105469 21.984375 50.585938 21.558594 C 50.0625 21.128906 49.519531 20.726562 48.957031 20.351562 C 48.398438 19.976562 47.816406 19.628906 47.222656 19.308594 C 46.625 18.992188 46.015625 18.703125 45.394531 18.445312 C 44.769531 18.1875 44.132812 17.960938 43.488281 17.761719 C 42.839844 17.566406 42.1875 17.402344 41.523438 17.269531 C 40.859375 17.140625 40.195312 17.039062 39.523438 16.972656 C 38.847656 16.90625 38.175781 16.875 37.5 16.875 Z M 37.5 16.875 "/>
<g clip-path="url(#clip1)" clip-rule="nonzero">
<path style=" stroke:none;fill-rule:nonzero;fill:rgb(100%,100%,100%);fill-opacity:1;" d="M 28.085938 33.496094 C 28.085938 37.644531 28.085938 50.636719 28.085938 50.636719 C 28.085938 50.90625 28.152344 51.164062 28.265625 51.394531 C 28.441406 51.738281 28.722656 52.015625 29.0625 52.207031 C 29.402344 52.398438 29.804688 52.507812 30.234375 52.507812 L 43.730469 52.507812 C 44.304688 52.507812 44.828125 52.316406 45.222656 51.988281 C 45.417969 51.824219 45.582031 51.621094 45.699219 51.394531 C 45.816406 51.164062 45.882812 50.90625 45.882812 50.636719 C 45.882812 50.636719 45.882812 49.09375 45.882812 46.894531 C 45.789062 46.949219 45.710938 46.992188 45.652344 47.03125 C 45.578125 47.070312 45.496094 47.09375 45.417969 47.09375 C 45.253906 47.09375 45.097656 47.011719 45.011719 46.863281 C 44.882812 46.640625 44.957031 46.355469 45.179688 46.226562 C 45.328125 46.140625 45.574219 45.996094 45.882812 45.816406 C 45.882812 41.984375 45.882812 36.824219 45.882812 34.050781 C 45.699219 34.050781 45.550781 34.050781 45.453125 34.050781 C 45.195312 34.050781 44.988281 33.84375 44.988281 33.585938 C 44.988281 33.570312 44.988281 33.558594 44.988281 33.542969 C 44.976562 33.546875 44.960938 33.554688 44.949219 33.558594 C 44.949219 37.9375 44.949219 50.636719 44.949219 50.636719 C 44.949219 50.757812 44.921875 50.867188 44.867188 50.976562 C 44.785156 51.136719 44.640625 51.285156 44.445312 51.398438 C 44.246094 51.507812 44 51.578125 43.730469 51.578125 L 30.234375 51.578125 C 30.234375 51.578125 30.234375 51.578125 30.230469 51.578125 C 29.875 51.578125 29.558594 51.453125 29.34375 51.273438 C 29.234375 51.183594 29.152344 51.082031 29.101562 50.976562 C 29.046875 50.867188 29.019531 50.757812 29.019531 50.636719 C 29.019531 50.636719 29.019531 38.273438 29.019531 33.816406 C 28.808594 33.769531 28.601562 33.707031 28.394531 33.628906 C 28.289062 33.589844 28.1875 33.546875 28.085938 33.496094 M 45.882812 32.988281 C 45.824219 33.035156 45.769531 33.078125 45.707031 33.121094 C 45.761719 33.121094 45.820312 33.121094 45.882812 33.121094 C 45.882812 33.078125 45.882812 33.03125 45.882812 32.988281 M 45.285156 32.273438 C 45.175781 32.304688 45.082031 32.375 45.023438 32.464844 C 45.113281 32.40625 45.203125 32.34375 45.285156 32.273438 "/>
</g>
<path style=" stroke:none;fill-rule:nonzero;fill:rgb(100%,100%,100%);fill-opacity:1;" d="M 31.277344 37.023438 C 31.082031 37.09375 30.867188 37.132812 30.644531 37.132812 C 30.644531 37.132812 30.644531 37.132812 30.640625 37.132812 C 30.539062 37.132812 30.441406 37.125 30.34375 37.105469 C 30.34375 41.230469 30.34375 48.375 30.34375 48.375 C 30.34375 48.628906 30.554688 48.839844 30.8125 48.839844 C 31.070312 48.839844 31.277344 48.628906 31.277344 48.375 C 31.277344 48.375 31.277344 41.132812 31.277344 37.023438 "/>
<path style=" stroke:none;fill-rule:nonzero;fill:rgb(100%,100%,100%);fill-opacity:1;" d="M 35.324219 34.148438 C 35.066406 34.148438 34.859375 34.355469 34.859375 34.613281 L 34.859375 48.375 C 34.859375 48.628906 35.066406 48.839844 35.324219 48.839844 C 35.582031 48.839844 35.792969 48.628906 35.792969 48.375 L 35.792969 34.613281 C 35.792969 34.355469 35.582031 34.148438 35.324219 34.148438 "/>
<path style=" stroke:none;fill-rule:nonzero;fill:rgb(100%,100%,100%);fill-opacity:1;" d="M 39.339844 34.148438 C 39.082031 34.148438 38.875 34.355469 38.875 34.613281 L 38.875 48.375 C 38.875 48.628906 39.082031 48.839844 39.339844 48.839844 C 39.597656 48.839844 39.808594 48.628906 39.808594 48.375 L 39.808594 34.613281 C 39.808594 34.355469 39.597656 34.148438 39.339844 34.148438 "/>
<path style=" stroke:none;fill-rule:nonzero;fill:rgb(100%,100%,100%);fill-opacity:1;" d="M 43.359375 34.148438 C 43.101562 34.148438 42.890625 34.355469 42.890625 34.613281 L 42.890625 48.375 C 42.890625 48.628906 43.101562 48.839844 43.359375 48.839844 C 43.617188 48.839844 43.824219 48.628906 43.824219 48.375 L 43.824219 34.613281 C 43.824219 34.355469 43.617188 34.148438 43.359375 34.148438 "/>
<g clip-path="url(#clip2)" clip-rule="nonzero">
<path style=" stroke:none;fill-rule:nonzero;fill:rgb(100%,97.24884%,97.24884%);fill-opacity:1;" d="M 38.011719 22.503906 C 36.855469 22.503906 35.785156 22.78125 34.910156 23.253906 C 34.476562 23.492188 34.089844 23.78125 33.769531 24.117188 C 33.589844 24.300781 33.433594 24.496094 33.300781 24.707031 C 32.835938 24.421875 32.289062 24.253906 31.699219 24.253906 C 30.863281 24.253906 30.097656 24.59375 29.550781 25.140625 C 29 25.6875 28.660156 26.445312 28.660156 27.28125 C 28.660156 27.550781 28.695312 27.8125 28.761719 28.058594 C 28.253906 28.230469 27.800781 28.527344 27.453125 28.914062 C 26.976562 29.4375 26.683594 30.132812 26.683594 30.894531 C 26.683594 30.910156 26.6875 30.921875 26.6875 30.9375 C 26.695312 31.46875 26.777344 31.914062 26.9375 32.292969 C 27.058594 32.574219 27.222656 32.816406 27.414062 33.011719 C 27.613281 33.21875 27.84375 33.375 28.085938 33.496094 C 28.085938 33.414062 28.085938 33.332031 28.085938 33.257812 C 28.085938 33 28.292969 32.792969 28.550781 32.792969 C 28.808594 32.792969 29.019531 33 29.019531 33.257812 C 29.019531 33.425781 29.019531 33.613281 29.019531 33.816406 C 29.035156 33.820312 29.050781 33.824219 29.066406 33.828125 L 29.066406 35.273438 C 29.066406 35.5 29.089844 35.722656 29.148438 35.933594 C 29.1875 36.09375 29.25 36.246094 29.332031 36.390625 C 29.453125 36.605469 29.628906 36.796875 29.859375 36.929688 C 30.003906 37.015625 30.167969 37.078125 30.34375 37.105469 C 30.34375 36.957031 30.34375 36.808594 30.34375 36.667969 C 30.34375 36.410156 30.554688 36.203125 30.8125 36.203125 C 31.070312 36.203125 31.277344 36.410156 31.277344 36.667969 C 31.277344 36.785156 31.277344 36.902344 31.277344 37.023438 C 31.300781 37.015625 31.324219 37.007812 31.34375 36.996094 L 31.34375 39.457031 C 31.34375 39.902344 31.527344 40.3125 31.824219 40.605469 C 32.117188 40.898438 32.527344 41.082031 32.976562 41.082031 C 32.976562 41.082031 32.976562 41.082031 32.980469 41.082031 C 33.429688 41.082031 33.839844 40.898438 34.132812 40.605469 C 34.429688 40.3125 34.613281 39.902344 34.613281 39.457031 L 34.613281 33.683594 C 35.179688 33.496094 35.6875 33.179688 36.105469 32.773438 C 36.390625 33.050781 36.714844 33.285156 37.070312 33.464844 C 37.597656 33.730469 38.191406 33.878906 38.820312 33.878906 C 39.675781 33.878906 40.472656 33.601562 41.113281 33.132812 C 41.753906 33.601562 42.546875 33.878906 43.402344 33.878906 C 43.953125 33.878906 44.476562 33.765625 44.949219 33.558594 C 44.949219 33.230469 44.949219 32.945312 44.949219 32.71875 C 44.949219 32.625 44.976562 32.539062 45.023438 32.464844 C 44.558594 32.773438 44.003906 32.949219 43.402344 32.949219 C 42.640625 32.949219 41.949219 32.664062 41.425781 32.1875 C 41.335938 32.109375 41.226562 32.070312 41.113281 32.070312 C 41 32.070312 40.886719 32.109375 40.800781 32.1875 C 40.273438 32.664062 39.585938 32.949219 38.820312 32.949219 C 38.34375 32.949219 37.890625 32.835938 37.492188 32.636719 C 37.09375 32.433594 36.746094 32.144531 36.476562 31.792969 C 36.390625 31.675781 36.253906 31.609375 36.105469 31.609375 C 35.960938 31.609375 35.824219 31.675781 35.734375 31.792969 C 35.324219 32.332031 34.726562 32.722656 34.042969 32.875 C 33.828125 32.925781 33.679688 33.113281 33.679688 33.328125 L 33.679688 39.457031 C 33.679688 39.648438 33.601562 39.820312 33.472656 39.949219 C 33.34375 40.074219 33.171875 40.152344 32.980469 40.152344 C 32.785156 40.152344 32.613281 40.074219 32.484375 39.949219 C 32.355469 39.820312 32.277344 39.648438 32.277344 39.457031 L 32.277344 36.042969 C 32.277344 35.839844 32.144531 35.65625 31.945312 35.597656 C 31.902344 35.585938 31.855469 35.578125 31.8125 35.578125 C 31.660156 35.578125 31.511719 35.65625 31.421875 35.785156 C 31.339844 35.914062 31.226562 36.015625 31.09375 36.089844 C 30.960938 36.160156 30.808594 36.203125 30.644531 36.203125 C 30.515625 36.203125 30.425781 36.179688 30.355469 36.144531 C 30.304688 36.117188 30.257812 36.082031 30.21875 36.039062 C 30.15625 35.972656 30.101562 35.875 30.0625 35.742188 C 30.023438 35.613281 30 35.453125 30 35.273438 L 30 33.449219 C 30 33.226562 29.839844 33.035156 29.621094 32.992188 C 29.328125 32.9375 29.054688 32.878906 28.8125 32.792969 C 28.632812 32.730469 28.472656 32.65625 28.332031 32.566406 C 28.125 32.433594 27.964844 32.269531 27.839844 32.019531 C 27.714844 31.765625 27.625 31.417969 27.617188 30.925781 L 27.617188 30.894531 C 27.621094 30.375 27.816406 29.902344 28.144531 29.535156 C 28.476562 29.171875 28.933594 28.921875 29.441406 28.851562 C 29.589844 28.832031 29.722656 28.742188 29.792969 28.613281 C 29.863281 28.480469 29.867188 28.324219 29.800781 28.191406 C 29.667969 27.914062 29.59375 27.609375 29.59375 27.28125 C 29.59375 26.699219 29.828125 26.179688 30.210938 25.796875 C 30.59375 25.417969 31.117188 25.183594 31.699219 25.183594 C 32.257812 25.183594 32.761719 25.398438 33.140625 25.75 C 33.230469 25.832031 33.34375 25.878906 33.460938 25.878906 C 33.496094 25.878906 33.53125 25.875 33.5625 25.867188 C 33.714844 25.832031 33.839844 25.726562 33.894531 25.585938 C 34.011719 25.292969 34.195312 25.015625 34.441406 24.757812 C 34.8125 24.371094 35.324219 24.039062 35.9375 23.804688 C 36.546875 23.570312 37.253906 23.433594 38.011719 23.433594 C 38.011719 23.433594 38.015625 23.433594 38.015625 23.433594 C 39.230469 23.433594 40.320312 23.789062 41.082031 24.332031 C 41.464844 24.605469 41.765625 24.921875 41.964844 25.261719 C 42.167969 25.597656 42.273438 25.957031 42.273438 26.332031 C 42.273438 26.429688 42.265625 26.527344 42.25 26.625 C 42.226562 26.777344 42.28125 26.925781 42.390625 27.03125 C 42.480469 27.113281 42.59375 27.15625 42.710938 27.15625 C 42.742188 27.15625 42.773438 27.15625 42.804688 27.148438 C 43 27.109375 43.199219 27.085938 43.402344 27.085938 C 44.21875 27.089844 44.949219 27.414062 45.484375 27.945312 C 46.019531 28.476562 46.347656 29.207031 46.347656 30.019531 C 46.347656 30.828125 46.019531 31.558594 45.484375 32.089844 C 45.421875 32.15625 45.355469 32.214844 45.285156 32.273438 C 45.328125 32.261719 45.371094 32.253906 45.414062 32.253906 C 45.671875 32.253906 45.882812 32.460938 45.882812 32.71875 C 45.882812 32.800781 45.882812 32.890625 45.882812 32.988281 C 45.972656 32.910156 46.0625 32.832031 46.144531 32.746094 C 46.847656 32.050781 47.28125 31.082031 47.28125 30.019531 C 47.28125 28.953125 46.847656 27.984375 46.144531 27.289062 C 45.445312 26.589844 44.472656 26.160156 43.40625 26.160156 C 43.40625 26.160156 43.40625 26.160156 43.402344 26.160156 C 43.335938 26.160156 43.269531 26.160156 43.199219 26.164062 C 43.171875 25.671875 43.019531 25.203125 42.769531 24.785156 C 42.351562 24.085938 41.679688 23.519531 40.855469 23.125 C 40.035156 22.730469 39.058594 22.503906 38.011719 22.503906 "/>
</g>
<path style=" stroke:none;fill-rule:nonzero;fill:rgb(100%,97.24884%,97.24884%);fill-opacity:1;" d="M 28.550781 32.792969 C 28.292969 32.792969 28.085938 33 28.085938 33.257812 C 28.085938 33.332031 28.085938 33.414062 28.085938 33.496094 C 28.1875 33.546875 28.289062 33.589844 28.394531 33.628906 C 28.601562 33.707031 28.808594 33.769531 29.019531 33.816406 C 29.019531 33.613281 29.019531 33.425781 29.019531 33.257812 C 29.019531 33 28.808594 32.792969 28.550781 32.792969 M 45.414062 32.253906 C 45.371094 32.253906 45.328125 32.261719 45.285156 32.273438 C 45.203125 32.34375 45.113281 32.40625 45.023438 32.464844 C 44.976562 32.539062 44.949219 32.625 44.949219 32.71875 C 44.949219 32.945312 44.949219 33.230469 44.949219 33.558594 C 44.960938 33.554688 44.976562 33.546875 44.988281 33.542969 C 45.011719 33.308594 45.210938 33.121094 45.453125 33.121094 C 45.460938 33.121094 45.472656 33.121094 45.480469 33.121094 C 45.539062 33.121094 45.617188 33.121094 45.707031 33.121094 C 45.769531 33.078125 45.824219 33.035156 45.882812 32.988281 C 45.882812 32.890625 45.882812 32.800781 45.882812 32.71875 C 45.882812 32.460938 45.671875 32.253906 45.414062 32.253906 "/>
<path style=" stroke:none;fill-rule:nonzero;fill:rgb(100%,97.24884%,97.24884%);fill-opacity:1;" d="M 30.8125 36.203125 C 30.554688 36.203125 30.34375 36.410156 30.34375 36.667969 C 30.34375 36.808594 30.34375 36.957031 30.34375 37.105469 C 30.441406 37.125 30.539062 37.132812 30.640625 37.132812 C 30.644531 37.132812 30.644531 37.132812 30.644531 37.132812 C 30.867188 37.132812 31.082031 37.09375 31.277344 37.023438 C 31.277344 36.902344 31.277344 36.785156 31.277344 36.667969 C 31.277344 36.410156 31.070312 36.203125 30.8125 36.203125 "/>
<g clip-path="url(#clip3)" clip-rule="nonzero">
<path style=" stroke:none;fill-rule:nonzero;fill:rgb(100%,100%,100%);fill-opacity:1;" d="M 49.933594 33.121094 C 49.933594 33.121094 49.699219 33.121094 49.335938 33.121094 C 48.441406 33.121094 46.753906 33.121094 45.882812 33.121094 C 45.882812 33.390625 45.882812 33.699219 45.882812 34.050781 C 47.101562 34.050781 49.902344 34.050781 49.933594 34.050781 C 49.996094 34.050781 50.050781 34.0625 50.113281 34.09375 C 50.199219 34.140625 50.292969 34.226562 50.363281 34.351562 C 50.433594 34.476562 50.476562 34.636719 50.476562 34.816406 L 50.476562 42.703125 C 50.46875 42.714844 50.453125 42.730469 50.441406 42.746094 C 50.367188 42.828125 50.234375 42.953125 50.0625 43.089844 C 49.765625 43.332031 49.351562 43.628906 48.890625 43.9375 C 47.890625 44.609375 46.679688 45.34375 45.882812 45.816406 C 45.882812 46.191406 45.882812 46.550781 45.882812 46.894531 C 46.480469 46.546875 47.671875 45.839844 48.777344 45.125 C 49.417969 44.710938 50.03125 44.296875 50.496094 43.933594 C 50.730469 43.753906 50.925781 43.585938 51.082031 43.425781 C 51.160156 43.34375 51.226562 43.265625 51.285156 43.171875 C 51.316406 43.125 51.34375 43.074219 51.367188 43.011719 C 51.390625 42.949219 51.410156 42.875 51.410156 42.785156 L 51.410156 34.816406 C 51.410156 34.371094 51.265625 33.964844 51.007812 33.652344 C 50.878906 33.496094 50.722656 33.363281 50.539062 33.269531 C 50.359375 33.175781 50.152344 33.121094 49.933594 33.121094 "/>
</g>
<path style=" stroke:none;fill-rule:nonzero;fill:rgb(100%,97.24884%,97.24884%);fill-opacity:1;" d="M 45.882812 45.816406 C 45.574219 45.996094 45.328125 46.140625 45.179688 46.226562 C 44.957031 46.355469 44.882812 46.640625 45.011719 46.863281 C 45.097656 47.007812 45.253906 47.09375 45.417969 47.09375 C 45.496094 47.09375 45.578125 47.070312 45.652344 47.03125 C 45.710938 46.992188 45.789062 46.949219 45.882812 46.894531 C 45.882812 46.550781 45.882812 46.191406 45.882812 45.816406 M 45.882812 33.121094 C 45.820312 33.121094 45.761719 33.121094 45.707031 33.121094 C 45.488281 33.285156 45.246094 33.429688 44.988281 33.542969 C 44.988281 33.558594 44.988281 33.570312 44.988281 33.585938 C 44.988281 33.84375 45.195312 34.050781 45.453125 34.050781 C 45.550781 34.050781 45.699219 34.050781 45.882812 34.050781 C 45.882812 33.703125 45.882812 33.390625 45.882812 33.121094 "/>
<path style=" stroke:none;fill-rule:nonzero;fill:rgb(100%,97.24884%,97.24884%);fill-opacity:1;" d="M 45.707031 33.121094 C 45.617188 33.121094 45.539062 33.121094 45.480469 33.121094 C 45.472656 33.121094 45.460938 33.121094 45.453125 33.121094 C 45.210938 33.121094 45.011719 33.308594 44.988281 33.542969 C 45.246094 33.425781 45.488281 33.285156 45.707031 33.121094 "/>
</g>
</svg>
